<?xml version="1.0" standalone="no"?>
<!DOCTYPE svg PUBLIC "-//W3C//DTD SVG 20010904//EN"
 "http://www.w3.org/TR/2001/REC-SVG-20010904/DTD/svg10.dtd">
<svg version="1.0" xmlns="http://www.w3.org/2000/svg"
 width="2000.000000pt" height="2000.000000pt" viewBox="0 0 2000.000000 2000.000000"
 preserveAspectRatio="xMidYMid meet">

<g transform="translate(0.000000,2000.000000) scale(0.100000,-0.100000)"
fill="#000000" stroke="none">
<path d="M5488 16513 c-9 -10 -18 -31 -21 -48 -3 -16 -19 -79 -36 -140 -34
-122 -56 -258 -67 -412 -4 -65 -11 -103 -18 -103 -88 -1 -508 -80 -690 -130
-61 -16 -111 -28 -112 -27 -1 1 -27 54 -58 117 -73 147 -186 317 -273 410
l-69 73 -124 -51 c-453 -185 -485 -200 -488 -223 -7 -41 19 -246 43 -355 14
-58 42 -158 63 -221 l40 -115 -24 -10 c-13 -6 -24 -15 -24 -19 0 -4 -11 -10
-24 -13 -14 -3 -31 -12 -38 -19 -7 -7 -24 -18 -38 -25 -28 -13 -62 -34 -70
-42 -3 -3 -22 -14 -43 -25 -21 -11 -47 -28 -57 -37 -11 -10 -24 -18 -30 -18
-5 0 -10 -4 -10 -10 0 -5 -7 -10 -15 -10 -8 0 -15 -4 -15 -10 0 -5 -6 -10 -13
-10 -8 0 -24 -11 -37 -25 -13 -14 -27 -25 -32 -25 -5 0 -21 -11 -36 -25 -15
-14 -30 -25 -34 -25 -5 0 -17 -8 -27 -17 -32 -29 -53 -46 -89 -74 l-34 -26
-46 41 c-58 52 -86 76 -118 101 -15 11 -34 27 -43 35 -34 31 -90 70 -99 70 -6
0 -12 3 -14 8 -8 19 -248 151 -248 136 0 -4 -7 -1 -16 7 -13 11 -47 -19 -251
-223 l-235 -235 23 -54 c58 -136 175 -313 304 -459 41 -47 75 -88 75 -91 0 -3
-36 -52 -80 -109 -98 -125 -248 -350 -321 -480 -29 -52 -54 -97 -56 -99 -2 -3
-61 15 -132 38 -174 57 -349 92 -480 94 l-104 2 -124 -299 -124 -299 43 -45
c97 -100 285 -227 461 -310 84 -40 97 -50 92 -67 -28 -96 -80 -314 -100 -420
-21 -110 -55 -344 -55 -376 0 -5 -33 -9 -73 -9 -156 0 -450 -57 -584 -114
l-58 -24 0 -327 0 -327 58 -24 c134 -57 428 -114 584 -114 40 0 73 -4 73 -9 0
-32 34 -266 55 -376 20 -106 71 -321 100 -420 5 -17 -10 -27 -105 -74 -175
-85 -357 -209 -453 -309 l-38 -39 123 -299 124 -299 50 -3 c117 -8 329 31 536
100 70 23 129 40 131 37 2 -2 27 -47 56 -99 73 -130 223 -355 321 -480 44 -57
80 -106 80 -109 0 -3 -34 -44 -75 -91 -129 -146 -246 -323 -304 -459 l-23 -54
235 -235 c204 -204 238 -234 251 -223 9 8 16 11 16 7 0 -15 240 117 248 137 2
4 8 7 14 7 9 0 64 39 99 70 9 8 28 24 42 35 37 29 128 107 147 126 16 15 20
14 52 -10 36 -28 57 -45 89 -73 10 -10 22 -18 27 -18 4 0 19 -11 34 -25 15
-14 31 -25 36 -25 5 0 19 -11 32 -25 13 -14 29 -25 37 -25 7 0 13 -4 13 -10 0
-5 7 -10 15 -10 8 0 15 -4 15 -10 0 -5 5 -10 10 -10 6 0 19 -8 30 -18 10 -9
36 -26 57 -37 21 -11 40 -22 43 -25 8 -8 42 -29 70 -42 14 -7 31 -18 38 -25 7
-7 24 -16 38 -19 13 -3 24 -9 24 -13 0 -4 11 -13 24 -19 l23 -10 -43 -129
c-23 -70 -52 -173 -63 -228 -25 -124 -47 -343 -35 -354 5 -4 122 -54 259 -111
138 -56 272 -111 298 -123 l48 -20 41 39 c102 99 231 289 315 464 25 52 46 96
47 97 1 1 51 -11 112 -27 142 -39 416 -94 574 -115 69 -9 126 -18 127 -19 1
-1 7 -65 13 -142 11 -149 46 -342 80 -438 11 -33 20 -72 20 -87 0 -17 7 -32
18 -38 20 -11 563 4 717 19 50 5 147 15 218 21 70 7 127 16 127 21 0 4 20 8
44 8 25 0 48 5 51 10 3 6 24 10 46 10 22 0 49 5 59 10 11 6 46 13 80 17 33 3
60 10 60 14 0 5 15 9 34 9 19 0 38 5 41 10 3 6 19 10 35 10 16 0 31 4 35 9 3
5 30 13 60 16 30 4 55 11 55 16 0 5 13 9 29 9 17 0 32 4 36 9 3 6 26 13 50 17
25 3 45 10 45 15 0 5 14 9 30 9 17 0 30 5 30 10 0 6 11 10 25 10 14 0 25 4 25
9 0 5 20 12 45 15 25 4 45 11 45 17 0 5 7 9 15 9 8 0 23 4 33 9 44 23 92 41
112 41 11 0 18 5 15 10 -3 6 0 10 8 10 7 0 36 11 63 25 27 14 57 25 67 25 9 0
17 5 17 10 0 6 9 10 20 10 11 0 20 3 20 8 0 7 73 42 89 42 5 0 11 3 13 8 5 11
106 62 123 62 8 0 15 5 15 10 0 6 7 10 15 10 8 0 15 4 15 9 0 5 14 12 30 16
17 4 30 11 30 16 0 5 7 9 15 9 8 0 15 3 15 8 0 8 73 42 90 42 6 0 10 3 10 8 0
4 15 14 33 21 17 8 38 21 45 28 7 7 22 13 33 13 11 0 17 5 14 10 -3 6 1 10 9
10 9 0 16 3 16 8 0 4 18 16 40 26 22 11 40 23 40 28 0 4 5 8 10 8 6 0 23 11
38 25 15 14 30 25 34 25 5 0 33 25 64 55 31 30 60 55 65 55 4 0 27 18 51 40
76 70 84 77 114 96 16 10 43 33 60 51 17 18 36 33 44 33 7 0 10 3 7 7 -4 3 10
19 31 34 70 51 359 346 455 464 17 22 44 52 59 67 14 16 24 28 21 28 -3 0 3 8
13 18 11 9 37 42 59 72 22 30 50 66 62 80 13 14 23 28 23 32 0 5 13 22 30 39
16 17 32 40 35 50 4 11 11 19 16 19 5 0 9 7 9 15 0 8 3 15 8 15 4 0 16 16 26
35 11 19 23 35 28 35 4 0 8 7 8 15 0 8 4 15 8 15 5 0 17 18 27 40 10 22 22 40
27 40 4 0 8 7 8 15 0 8 4 15 9 15 5 0 12 11 15 25 4 14 11 25 16 25 6 0 10 8
10 18 0 10 9 24 20 32 10 8 22 27 25 42 4 15 11 28 16 28 5 0 9 9 9 20 0 11 5
20 10 20 6 0 10 7 10 15 0 8 5 15 11 15 5 0 7 5 4 10 -3 6 -1 10 4 10 6 0 11
9 11 20 0 11 5 20 10 20 6 0 10 7 10 15 0 8 5 15 10 15 6 0 10 9 10 19 0 11 5
23 10 26 6 4 8 11 5 16 -4 5 -1 9 4 9 6 0 11 9 11 20 0 11 5 20 10 20 6 0 10
7 10 15 0 8 4 15 9 15 5 0 12 16 15 35 4 19 10 35 14 35 9 0 32 49 32 67 0 7
4 13 9 13 5 0 12 18 16 40 4 22 10 40 13 40 9 0 32 50 32 67 0 7 4 13 9 13 6
0 13 20 17 45 3 25 10 45 15 45 5 0 9 9 9 20 0 11 5 20 10 20 6 0 10 11 10 25
0 14 3 25 8 25 7 0 25 58 39 123 3 15 9 27 14 27 5 0 9 14 9 30 0 17 4 30 9
30 5 0 12 23 16 50 4 28 11 50 16 50 5 0 9 16 9 35 0 19 4 35 8 35 8 0 28 77
39 153 3 20 9 37 14 37 5 0 9 16 9 35 0 19 4 35 9 35 4 0 11 33 15 72 4 40 11
77 16 82 6 6 10 32 10 58 0 26 5 48 10 48 6 0 10 26 10 57 0 31 3 53 8 49 6
-7 23 136 37 319 10 121 3 113 87 99 102 -18 395 -18 501 1 174 30 293 89 385
190 65 70 94 126 124 236 22 82 23 96 23 542 l0 459 -24 19 c-20 17 -40 19
-160 19 -135 0 -138 -1 -162 -26 l-24 -26 -5 -441 c-5 -437 -5 -442 -28 -485
-28 -53 -94 -96 -171 -114 -33 -7 -121 -12 -216 -12 -142 1 -168 3 -230 25
l-70 24 -7 185 c-4 102 -12 235 -18 295 -6 61 -16 168 -23 238 -6 71 -15 125
-19 121 -5 -4 -8 18 -8 49 0 32 -4 57 -10 57 -5 0 -10 22 -10 48 0 26 -4 52
-10 58 -5 5 -12 42 -16 82 -4 39 -11 72 -15 72 -5 0 -9 16 -9 35 0 19 -4 35
-9 35 -5 0 -11 17 -14 38 -11 75 -31 152 -39 152 -4 0 -8 16 -8 35 0 19 -4 35
-9 35 -5 0 -12 23 -16 50 -4 28 -11 50 -16 50 -5 0 -9 14 -9 30 0 17 -4 30 -9
30 -5 0 -11 12 -14 28 -14 64 -32 122 -39 122 -5 0 -8 11 -8 25 0 14 -4 25
-10 25 -5 0 -10 9 -10 20 0 11 -4 20 -9 20 -5 0 -12 20 -15 45 -4 25 -11 45
-17 45 -5 0 -9 6 -9 13 0 17 -23 67 -32 67 -3 0 -9 18 -13 40 -4 22 -11 40
-16 40 -5 0 -9 6 -9 13 0 18 -23 67 -32 67 -4 0 -10 16 -14 35 -3 19 -10 35
-15 35 -5 0 -9 7 -9 15 0 8 -4 15 -10 15 -5 0 -10 9 -10 20 0 11 -5 20 -11 20
-5 0 -8 4 -4 9 3 5 1 12 -5 16 -5 3 -10 15 -10 26 0 10 -4 19 -10 19 -5 0 -10
7 -10 15 0 8 -4 15 -10 15 -5 0 -10 9 -10 20 0 11 -5 20 -11 20 -5 0 -7 5 -4
10 3 6 1 10 -4 10 -6 0 -11 7 -11 15 0 8 -4 15 -10 15 -5 0 -10 9 -10 20 0 11
-4 20 -9 20 -5 0 -12 13 -16 28 -3 15 -15 34 -25 42 -11 8 -20 22 -20 32 0 10
-4 18 -10 18 -5 0 -12 11 -16 25 -3 14 -10 25 -15 25 -5 0 -9 7 -9 15 0 8 -4
15 -8 15 -5 0 -17 18 -27 40 -10 22 -22 40 -27 40 -4 0 -8 7 -8 15 0 8 -4 15
-8 15 -5 0 -17 16 -28 35 -10 19 -22 35 -26 35 -5 0 -8 7 -8 15 0 8 -4 15 -9
15 -5 0 -12 8 -15 18 -4 10 -22 35 -41 56 -19 21 -35 42 -35 45 0 4 -8 16 -18
27 -9 10 -35 44 -57 74 -22 30 -48 63 -59 73 -10 9 -16 17 -13 17 3 0 -7 12
-21 28 -15 15 -42 45 -59 67 -96 118 -385 413 -455 464 -21 15 -35 31 -31 34
3 4 0 7 -7 7 -8 0 -27 15 -44 33 -17 18 -44 41 -60 51 -30 19 -48 34 -111 94
-19 17 -39 32 -44 32 -6 0 -21 11 -35 25 -14 14 -28 25 -31 25 -4 0 -13 6 -20
13 -33 29 -45 37 -55 37 -5 0 -10 3 -10 8 0 4 -16 16 -35 26 -19 11 -35 23
-35 28 0 4 -8 8 -17 8 -9 0 -13 3 -10 6 4 4 -13 16 -36 27 -23 12 -49 28 -57
36 -8 9 -32 25 -52 35 -21 11 -38 23 -38 28 0 4 -7 8 -15 8 -8 0 -15 4 -15 9
0 5 -13 12 -30 16 -16 4 -30 11 -30 16 0 5 -7 9 -15 9 -8 0 -15 5 -15 10 0 6
-7 10 -15 10 -8 0 -15 4 -15 9 0 5 -13 12 -30 16 -16 4 -30 11 -30 16 0 5 -7
9 -15 9 -8 0 -15 5 -15 10 0 6 -7 10 -15 10 -17 0 -118 51 -123 63 -2 4 -8 7
-13 7 -16 0 -89 35 -89 42 0 5 -9 8 -20 8 -11 0 -20 5 -20 10 0 6 -8 10 -17
10 -10 0 -40 11 -67 25 -27 14 -56 25 -63 25 -8 0 -11 5 -8 10 3 6 -4 10 -15
10 -20 0 -68 18 -112 41 -10 5 -25 9 -33 9 -8 0 -15 4 -15 9 0 6 -20 13 -45
17 -25 3 -45 10 -45 15 0 5 -11 9 -25 9 -14 0 -25 5 -25 10 0 6 -13 10 -30 10
-16 0 -30 4 -30 9 0 5 -20 12 -45 15 -24 4 -47 11 -50 17 -4 5 -19 9 -36 9
-16 0 -29 4 -29 9 0 5 -25 12 -55 16 -30 3 -57 11 -60 16 -4 5 -19 9 -35 9
-16 0 -32 5 -35 10 -3 6 -22 10 -41 10 -19 0 -34 4 -34 9 0 4 -27 11 -60 14
-34 4 -69 11 -80 17 -10 5 -37 10 -59 10 -22 0 -43 5 -46 10 -3 6 -26 10 -51
10 -24 0 -44 4 -44 8 0 5 -57 14 -127 21 -71 6 -166 16 -213 21 -47 5 -199 12
-337 16 -139 4 -253 11 -253 15 0 5 -26 9 -58 9 -44 0 -63 -5 -74 -17z m539
-93 c68 0 122 -4 119 -8 -3 -5 63 -12 147 -16 83 -4 156 -11 161 -16 6 -6 32
-10 58 -10 26 0 48 -4 48 -9 0 -5 24 -12 53 -14 81 -8 205 -31 213 -39 4 -5
22 -8 41 -8 18 0 33 -4 33 -9 0 -4 23 -11 51 -14 51 -6 109 -22 141 -38 10 -5
29 -9 43 -9 15 0 24 -4 20 -10 -3 -6 5 -10 19 -10 27 0 109 -24 138 -40 10 -6
27 -10 38 -10 12 0 19 -4 16 -9 -3 -5 17 -11 44 -15 28 -4 50 -11 50 -16 0 -6
11 -10 25 -10 14 0 25 -4 25 -10 0 -5 9 -10 20 -10 11 0 20 -4 20 -10 0 -5 10
-10 23 -10 12 0 35 -7 51 -15 15 -8 35 -15 42 -15 8 0 14 -4 14 -9 0 -5 15
-12 33 -15 30 -6 31 -8 12 -18 -11 -6 -33 -26 -49 -45 -16 -18 -33 -33 -39
-33 -5 0 -17 -8 -26 -19 -9 -10 -26 -21 -38 -25 -13 -4 -23 -12 -23 -17 0 -5
-5 -9 -10 -9 -6 0 -21 -9 -33 -20 -33 -31 -64 -35 -108 -14 -21 11 -39 22 -39
27 0 4 -7 7 -15 7 -8 0 -15 4 -15 10 0 5 -16 12 -35 16 -19 3 -35 10 -35 15 0
5 -7 9 -15 9 -8 0 -15 5 -15 10 0 6 -7 10 -15 10 -21 0 -95 33 -95 42 0 5 -9
8 -21 8 -11 0 -17 5 -14 10 3 6 -1 10 -9 10 -22 0 -96 33 -96 42 0 5 -9 8 -21
8 -11 0 -17 5 -14 10 3 6 -4 10 -17 10 -13 0 -36 7 -52 15 -15 8 -35 15 -42
15 -8 0 -14 5 -14 10 0 6 -9 10 -20 10 -11 0 -20 4 -20 9 0 5 -20 12 -45 15
-25 4 -45 11 -45 17 0 5 -9 9 -20 9 -11 0 -20 5 -20 10 0 6 -12 10 -26 10 -14
0 -23 4 -20 9 3 5 -14 12 -39 15 -24 4 -47 11 -50 17 -4 5 -17 9 -31 9 -13 0
-24 5 -24 10 0 6 -11 10 -25 10 -14 0 -25 4 -25 9 0 5 -22 12 -50 16 -27 4
-50 11 -50 16 0 5 -11 9 -25 9 -14 0 -25 4 -25 9 0 5 -25 12 -55 16 -30 3 -57
11 -60 16 -4 5 -19 9 -36 9 -16 0 -29 5 -29 10 0 6 -16 10 -37 10 -20 0 -33 3
-29 7 4 4 -26 13 -66 21 -40 7 -89 17 -108 22 -31 8 -30 9 14 5 27 -3 105 -5
173 -5z m-367 -107 c55 -39 199 -178 263 -255 15 -18 39 -46 53 -63 42 -51 45
-55 39 -55 -4 0 2 -9 48 -62 9 -12 17 -24 17 -27 0 -3 14 -22 30 -41 17 -19
33 -45 36 -57 4 -13 10 -23 15 -23 5 0 9 -9 9 -20 0 -11 4 -20 9 -20 5 0 18
-17 28 -37 34 -65 58 -103 66 -103 5 0 6 -4 2 -9 -3 -5 -1 -12 5 -16 5 -3 10
-13 10 -21 0 -9 8 -23 17 -32 16 -16 14 -17 -25 -20 -23 -2 -42 -7 -42 -13 0
-5 -33 -9 -74 -9 -41 0 -85 -4 -98 -9 -13 -4 -119 -11 -235 -15 l-213 -7 0
465 c0 256 3 466 8 466 4 0 19 -8 32 -17z m165 -4 c5 -5 17 -9 27 -9 10 0 18
-3 18 -7 0 -5 27 -16 60 -27 33 -10 60 -22 60 -27 0 -5 9 -9 20 -9 11 0 20 -4
20 -10 0 -5 7 -10 15 -10 15 0 116 -50 125 -62 3 -3 18 -10 33 -13 15 -4 27
-11 27 -16 0 -5 7 -9 15 -9 8 0 15 -4 15 -10 0 -5 7 -10 15 -10 8 0 15 -4 15
-9 0 -5 14 -12 30 -16 17 -4 30 -11 30 -16 0 -5 7 -9 15 -9 8 0 15 -4 15 -10
0 -5 7 -10 15 -10 8 0 15 -4 15 -10 0 -5 7 -10 15 -10 8 0 24 -10 37 -22 13
-13 35 -29 49 -36 15 -8 38 -25 52 -38 14 -13 29 -24 32 -24 11 0 98 -68 157
-122 17 -16 34 -28 38 -28 14 0 160 -147 153 -153 -3 -4 -17 -7 -30 -7 -13 0
-31 -4 -41 -9 -32 -16 -87 -30 -144 -37 -32 -4 -58 -11 -58 -15 0 -5 -17 -9
-38 -9 -21 0 -42 -4 -47 -9 -6 -5 -52 -13 -103 -17 -83 -6 -92 -5 -86 10 3 9
1 16 -5 16 -6 0 -11 7 -11 15 0 8 -4 15 -10 15 -5 0 -10 9 -10 20 0 11 -4 20
-9 20 -5 0 -12 14 -16 30 -4 17 -11 30 -16 30 -5 0 -9 7 -9 15 0 8 -4 15 -10
15 -5 0 -10 7 -10 15 0 8 -4 15 -10 15 -5 0 -10 9 -10 20 0 11 -7 23 -15 26
-8 4 -15 15 -15 25 0 10 -4 19 -10 19 -5 0 -10 7 -10 15 0 8 -4 15 -10 15 -5
0 -12 11 -16 25 -3 14 -14 31 -23 38 -10 6 -26 27 -36 45 -11 17 -23 32 -27
32 -4 0 -8 6 -8 14 0 8 -14 28 -31 45 -17 17 -28 35 -24 41 3 5 2 10 -4 10
-12 0 -27 15 -66 65 -35 44 -127 138 -176 179 -30 25 -31 27 -9 21 14 -4 29
-11 35 -16z m380 -69 c3 -5 17 -10 31 -10 13 0 24 -4 24 -9 0 -5 20 -12 45
-15 24 -4 47 -11 50 -17 4 -5 17 -9 31 -9 13 0 24 -4 24 -10 0 -5 11 -10 25
-10 14 0 25 -4 25 -10 0 -5 12 -10 28 -10 15 0 40 -7 56 -15 15 -8 35 -15 42
-15 8 0 14 -4 14 -10 0 -5 9 -10 20 -10 11 0 20 -4 20 -9 0 -5 20 -12 45 -15
25 -4 45 -11 45 -17 0 -5 9 -9 20 -9 11 0 20 -4 20 -10 0 -5 12 -10 26 -10 14
0 23 -4 20 -9 -3 -5 14 -12 39 -15 25 -4 45 -11 45 -17 0 -5 9 -9 21 -9 11 0
17 -4 14 -10 -3 -5 3 -10 14 -10 11 0 22 -4 26 -9 3 -5 19 -12 35 -16 17 -4
30 -11 30 -16 0 -5 9 -9 20 -9 11 0 20 -4 20 -10 0 -5 4 -10 10 -10 17 0 90
-34 90 -42 0 -5 9 -8 20 -8 11 0 20 -4 20 -10 0 -5 5 -10 11 -10 13 0 82 -31
89 -40 3 -4 14 -10 25 -14 16 -6 17 -9 5 -16 -8 -6 -23 -10 -32 -10 -10 0 -18
-4 -18 -10 0 -5 -7 -10 -15 -10 -8 0 -15 -4 -15 -10 0 -5 -6 -10 -14 -10 -7 0
-27 -7 -42 -15 -16 -8 -39 -15 -51 -15 -13 0 -23 -4 -23 -10 0 -5 -11 -10 -25
-10 -14 0 -25 -4 -25 -9 0 -5 -12 -11 -26 -14 -21 -4 -37 6 -89 57 -34 33 -81
77 -104 96 -24 19 -53 45 -66 58 -13 12 -27 22 -30 22 -6 0 -24 14 -58 45 -12
12 -29 24 -37 28 -27 12 -54 32 -71 50 -9 9 -21 17 -27 17 -6 0 -22 11 -36 25
-14 14 -30 25 -36 25 -5 0 -10 4 -10 8 0 5 -18 17 -40 28 -22 10 -40 22 -40
27 0 4 -7 7 -15 7 -8 0 -15 4 -15 8 0 4 -12 13 -27 19 -49 21 -93 50 -86 57 3
3 -1 6 -10 6 -16 0 -97 38 -97 46 0 8 29 3 35 -6z m1585 -261 c0 -5 9 -9 20
-9 11 0 20 -4 20 -10 0 -5 9 -10 19 -10 11 0 22 -4 26 -9 3 -5 19 -12 35 -16
17 -4 30 -11 30 -16 0 -5 7 -9 15 -9 8 0 15 -4 15 -10 0 -5 7 -10 16 -10 18 0
77 -31 82 -42 2 -5 13 -8 23 -8 11 0 17 -4 14 -10 -3 -5 2 -10 12 -10 10 0 35
-11 55 -25 20 -14 42 -25 48 -25 6 0 9 -4 6 -9 -3 -5 7 -11 22 -14 15 -3 37
-15 49 -26 12 -12 27 -21 33 -21 5 0 10 -4 10 -9 0 -5 10 -11 23 -15 12 -3 32
-14 44 -26 12 -11 27 -20 33 -20 5 0 10 -4 10 -9 0 -5 11 -12 25 -15 14 -4 25
-11 25 -16 0 -6 7 -10 15 -10 8 0 15 -4 15 -9 0 -5 8 -12 19 -16 10 -3 33 -19
50 -35 17 -17 35 -30 40 -30 6 0 21 -11 35 -25 14 -14 28 -25 31 -25 7 0 24
-14 60 -47 13 -13 29 -23 35 -23 6 0 8 -4 5 -10 -3 -5 1 -10 9 -10 8 0 31 -16
50 -35 20 -19 39 -35 44 -35 4 0 24 -17 45 -37 56 -58 107 -104 107 -98 0 5
203 -199 345 -345 20 -21 22 -28 13 -45 -16 -28 -139 -145 -153 -145 -6 0 -17
-9 -25 -20 -8 -11 -18 -20 -23 -20 -5 0 -15 -7 -23 -15 -9 -8 -24 -15 -35 -15
-11 0 -17 -4 -14 -10 3 -5 -1 -10 -9 -10 -9 0 -16 -4 -16 -10 0 -5 -7 -10 -15
-10 -8 0 -15 -4 -15 -10 0 -5 -16 -12 -35 -16 -19 -3 -32 -10 -29 -15 3 -5 -6
-9 -20 -9 -15 0 -27 7 -30 18 -3 9 -19 33 -36 52 -16 19 -30 38 -30 42 0 3
-15 22 -32 42 -39 42 -80 90 -111 130 -12 16 -59 66 -104 111 -45 46 -80 85
-78 87 2 2 -9 12 -26 23 -16 11 -32 28 -35 38 -3 9 -9 17 -14 17 -5 0 -42 33
-82 73 -41 39 -89 83 -107 97 -18 14 -50 41 -71 60 -86 78 -111 100 -118 100
-4 0 -25 16 -45 35 -20 19 -41 35 -47 35 -5 0 -20 11 -34 25 -14 14 -30 25
-36 25 -6 0 -9 4 -6 9 3 5 -5 12 -19 15 -14 4 -25 11 -25 16 0 6 -7 10 -15 10
-8 0 -15 4 -15 8 0 5 -16 17 -35 28 -19 10 -35 22 -35 26 0 5 -7 8 -15 8 -8 0
-15 4 -15 8 0 5 -18 17 -40 28 -22 10 -40 22 -40 27 0 4 -7 7 -16 7 -8 0 -13
4 -10 9 4 5 -7 12 -24 16 -16 4 -30 11 -30 16 0 5 -7 9 -15 9 -8 0 -15 5 -15
10 0 6 -7 10 -16 10 -8 0 -12 5 -9 10 3 6 -3 10 -14 10 -11 0 -22 4 -25 8 -6
9 29 42 44 42 6 0 10 4 10 9 0 5 10 13 23 17 12 4 24 10 27 13 3 4 23 20 45
37 45 33 105 90 105 100 0 3 -10 14 -22 24 l-23 19 23 -6 c12 -3 22 -9 22 -14z
m-320 -299 c0 -5 9 -10 19 -10 11 0 26 -7 35 -15 8 -8 19 -15 25 -15 6 0 11
-4 11 -10 0 -5 7 -10 15 -10 8 0 15 -4 15 -9 0 -5 10 -11 23 -15 12 -3 32 -14
43 -24 11 -11 30 -23 42 -26 12 -4 22 -12 22 -17 0 -5 5 -9 11 -9 7 0 19 -8
28 -17 9 -10 33 -27 54 -37 20 -11 37 -23 37 -28 0 -4 7 -8 16 -8 8 0 13 -4
10 -9 -3 -5 4 -11 17 -15 12 -3 36 -18 52 -34 17 -15 37 -32 46 -38 20 -11 83
-62 114 -91 13 -13 27 -23 30 -23 4 0 13 -6 20 -12 8 -7 33 -29 56 -48 38 -32
144 -130 194 -179 11 -11 26 -26 33 -33 7 -7 34 -35 60 -61 26 -27 81 -83 122
-126 41 -42 85 -90 97 -106 25 -33 60 -74 111 -131 17 -19 32 -39 32 -42 0 -4
14 -23 30 -42 34 -39 37 -50 15 -50 -8 0 -15 -4 -15 -10 0 -5 -9 -10 -20 -10
-11 0 -20 -4 -20 -9 0 -5 -18 -12 -40 -16 -22 -4 -40 -11 -40 -16 0 -5 -9 -9
-20 -9 -11 0 -20 -4 -20 -10 0 -5 -11 -10 -25 -10 -14 0 -25 -4 -25 -9 0 -6
-20 -13 -45 -17 -25 -3 -45 -10 -45 -15 0 -5 -9 -9 -19 -9 -11 0 -23 -4 -26
-10 -3 -5 -17 -10 -31 -10 -13 0 -24 -4 -24 -9 0 -5 -25 -13 -55 -16 -30 -4
-55 -11 -55 -16 0 -5 -13 -9 -30 -9 -16 0 -30 -4 -30 -10 0 -5 -11 -10 -24
-10 -14 0 -27 -4 -31 -9 -3 -5 -34 -13 -70 -16 -36 -4 -65 -11 -65 -16 0 -5
-16 -9 -35 -9 -19 0 -35 -4 -35 -10 0 -5 -11 -10 -25 -10 -20 0 -25 5 -25 25
0 14 -4 25 -9 25 -5 0 -12 18 -16 40 -4 22 -11 40 -16 40 -5 0 -9 6 -9 13 0 7
-11 37 -25 65 -14 29 -25 58 -25 64 0 7 -9 24 -20 38 -11 14 -20 33 -20 43 0
9 -4 17 -10 17 -5 0 -7 7 -4 15 4 8 1 15 -5 15 -6 0 -11 9 -11 20 0 11 -4 20
-10 20 -5 0 -10 7 -10 15 0 8 -4 15 -10 15 -5 0 -10 9 -10 20 0 11 -5 20 -11
20 -5 0 -7 5 -4 10 3 6 1 10 -4 10 -6 0 -11 7 -11 15 0 8 -4 15 -10 15 -5 0
-10 7 -10 15 0 8 -4 15 -9 15 -5 0 -11 14 -15 31 -3 18 -16 40 -28 50 -11 11
-17 19 -13 19 4 0 1 8 -7 18 -9 9 -19 27 -22 40 -4 12 -12 22 -17 22 -5 0 -9
7 -9 15 0 8 -4 15 -8 15 -4 0 -21 25 -37 55 -15 30 -31 55 -35 55 -4 0 -15 16
-26 35 -10 19 -22 35 -26 35 -5 0 -8 5 -8 11 0 6 -6 17 -12 24 -28 31 -38 44
-38 51 0 4 -8 14 -18 23 -10 9 -26 27 -35 41 -20 30 -61 80 -102 125 -16 18
-39 46 -50 61 -11 15 -47 54 -79 86 -49 48 -55 58 -38 58 12 0 22 5 22 10 0 6
11 10 25 10 14 0 25 4 25 9 0 5 18 12 40 16 22 4 40 11 40 16 0 5 9 9 20 9 11
0 20 3 20 8 0 8 73 42 90 42 6 0 10 5 10 10 0 6 14 10 30 10 17 0 30 -4 30
-10z m-380 -239 c78 -82 121 -131 155 -176 11 -14 35 -42 53 -62 17 -20 32
-39 32 -42 0 -3 14 -21 31 -38 16 -18 27 -33 24 -33 -4 0 5 -15 19 -32 60 -76
106 -145 106 -158 0 -6 4 -10 9 -10 5 0 13 -10 17 -22 4 -13 9 -25 13 -28 7
-6 20 -27 57 -92 15 -27 31 -48 36 -48 4 0 7 -3 6 -7 -3 -11 33 -85 49 -101 6
-7 17 -28 24 -47 7 -19 17 -35 21 -35 4 0 8 -9 8 -19 0 -11 3 -21 8 -23 9 -4
42 -74 42 -91 0 -7 9 -23 20 -37 11 -14 20 -33 20 -42 0 -10 4 -18 10 -18 5 0
12 -16 16 -35 3 -19 10 -35 15 -35 5 0 9 -11 9 -24 0 -13 3 -26 8 -28 4 -1 15
-21 25 -42 22 -47 14 -56 -50 -56 -24 0 -43 -4 -43 -10 0 -5 -18 -10 -39 -10
-22 0 -42 -4 -45 -9 -3 -4 -27 -11 -53 -14 -27 -4 -68 -11 -93 -16 -25 -6 -69
-10 -97 -11 -29 0 -53 -4 -53 -10 0 -6 -26 -10 -58 -10 -32 0 -62 -4 -68 -9
-5 -6 -66 -13 -136 -17 -70 -4 -125 -11 -122 -15 3 -5 -33 -9 -80 -9 -70 0
-86 3 -86 15 0 8 -4 15 -9 15 -4 0 -11 33 -15 72 -4 40 -11 77 -16 82 -6 6
-10 25 -10 43 0 18 -4 33 -9 33 -5 0 -11 17 -15 38 -19 125 -31 182 -38 182
-4 0 -8 16 -8 35 0 19 -4 35 -10 35 -5 0 -10 13 -10 29 0 17 -4 32 -9 35 -5 3
-12 31 -16 61 -3 30 -11 55 -16 55 -5 0 -9 11 -9 25 0 14 -4 25 -9 25 -5 0
-11 12 -14 28 -25 119 -31 142 -39 142 -4 0 -8 14 -8 30 0 17 -4 30 -10 30 -5
0 -10 6 -10 14 0 7 -7 27 -15 42 -8 16 -15 37 -15 47 0 17 -19 57 -31 67 -4 3
-10 24 -14 48 -4 23 -11 42 -16 42 -5 0 -9 11 -9 25 0 14 -4 25 -10 25 -5 0
-10 7 -10 15 0 8 -9 29 -19 47 -11 17 -18 35 -15 40 3 4 0 8 -5 8 -20 0 -11
27 13 38 13 6 60 14 105 17 44 4 81 12 81 16 0 5 15 9 34 9 19 0 37 4 40 9 3
5 23 11 43 14 74 12 153 31 153 39 0 4 13 8 29 8 17 0 33 5 36 10 3 6 9 10 13
10 3 0 40 -36 82 -79z m-727 -93 c7 -7 21 -33 31 -58 10 -25 26 -63 36 -85 10
-22 25 -56 34 -77 9 -20 16 -45 16 -57 0 -12 5 -21 10 -21 6 0 10 -11 10 -24
0 -13 3 -26 8 -28 9 -4 42 -98 42 -120 0 -10 5 -18 10 -18 6 0 10 -9 10 -20 0
-11 4 -28 9 -38 8 -15 23 -62 25 -84 1 -3 4 -10 9 -14 4 -4 7 -20 7 -35 0 -15
5 -31 10 -34 6 -3 10 -17 10 -31 0 -13 4 -24 9 -24 5 0 12 -22 16 -50 4 -27
11 -52 16 -56 5 -3 9 -21 9 -40 0 -19 5 -34 10 -34 6 0 10 -15 10 -34 0 -19 4
-37 9 -40 5 -3 12 -37 16 -76 4 -38 11 -70 16 -70 5 0 9 -16 9 -35 0 -19 5
-35 10 -35 6 0 10 -12 10 -27 0 -15 4 -40 9 -57 6 -17 14 -52 19 -78 l9 -48
-44 0 c-24 0 -52 -4 -62 -9 -9 -5 -141 -13 -294 -17 -152 -4 -274 -11 -271
-15 3 -5 -111 -9 -254 -9 l-259 0 -6 473 c-4 259 -7 590 -7 733 l0 262 88 6
c48 3 185 8 304 12 123 3 215 10 212 15 -8 14 126 11 139 -3z m-1003 -1511 l0
-1044 -72 -28 c-109 -41 -269 -127 -361 -192 -105 -74 -286 -255 -360 -360
-65 -92 -151 -252 -192 -360 l-28 -73 -1039 0 -1038 0 0 28 c0 43 38 243 70
374 216 864 733 1606 1470 2110 411 281 861 467 1365 563 66 13 135 24 153 24
l32 1 0 -1043z m4176 791 c3 -9 14 -20 24 -23 10 -3 22 -15 25 -26 4 -10 11
-19 16 -19 5 0 9 -5 9 -10 0 -6 11 -22 25 -36 14 -14 25 -28 25 -32 0 -6 16
-27 60 -79 5 -7 10 -16 10 -20 0 -5 9 -15 20 -23 11 -8 20 -20 20 -27 0 -7 4
-13 9 -13 5 0 13 -10 17 -22 4 -13 15 -30 25 -39 11 -9 19 -24 19 -33 0 -9 5
-16 10 -16 6 0 18 -16 27 -35 9 -19 20 -35 24 -35 4 0 10 -11 13 -25 4 -14 11
-25 16 -25 6 0 10 -7 10 -15 0 -8 3 -15 8 -15 8 0 42 -57 42 -72 0 -6 8 -18
18 -27 10 -9 26 -36 37 -61 11 -25 22 -47 26 -50 4 -3 19 -30 35 -60 16 -30
32 -56 37 -58 4 -2 7 -12 7 -23 0 -10 4 -19 10 -19 5 0 12 -16 16 -35 3 -19
10 -35 15 -35 5 0 9 -7 9 -15 0 -8 5 -15 10 -15 6 0 10 -9 10 -20 0 -11 5 -20
10 -20 33 0 -20 -66 -136 -167 -27 -24 -67 -59 -89 -78 -22 -19 -50 -38 -62
-41 -13 -3 -23 -9 -23 -14 0 -4 -16 -15 -35 -26 -19 -10 -35 -22 -35 -26 0 -5
-7 -8 -15 -8 -8 0 -15 -4 -15 -10 0 -5 -7 -10 -15 -10 -8 0 -15 -4 -15 -9 0
-5 -13 -12 -30 -16 -16 -4 -30 -11 -30 -16 0 -5 -7 -9 -15 -9 -8 0 -15 -4 -15
-10 0 -17 -28 -11 -33 8 -21 76 -43 142 -49 142 -5 0 -8 11 -8 25 0 14 -4 25
-10 25 -5 0 -10 11 -10 25 0 14 -4 25 -9 25 -5 0 -7 9 -4 20 3 11 0 20 -6 20
-6 0 -11 11 -11 25 0 14 -4 25 -10 25 -5 0 -10 11 -10 25 0 14 -4 25 -9 25 -5
0 -12 15 -15 34 -4 19 -10 36 -14 38 -8 3 -62 113 -62 126 0 15 -25 62 -32 62
-5 0 -8 9 -8 20 0 11 -4 20 -9 20 -5 0 -12 13 -16 29 -3 16 -12 35 -20 41 -18
15 -55 86 -55 105 0 8 -4 15 -10 15 -5 0 -10 7 -10 15 0 8 -4 15 -10 15 -5 0
-10 9 -10 19 0 10 -7 21 -15 25 -8 3 -15 14 -15 23 0 10 -9 25 -20 33 -11 8
-20 20 -20 27 0 7 -5 13 -11 13 -5 0 -7 5 -4 10 3 6 1 10 -4 10 -6 0 -11 7
-11 15 0 8 -4 15 -10 15 -5 0 -10 9 -10 20 0 11 -4 20 -9 20 -5 0 -12 8 -15
18 -3 9 -21 35 -40 57 -26 29 -31 41 -21 43 8 2 15 7 15 10 0 4 20 16 45 27
25 11 45 23 45 27 0 5 7 8 15 8 8 0 15 4 15 10 0 5 11 12 25 16 14 3 25 10 25
15 0 5 5 9 10 9 6 0 23 11 38 25 15 14 30 25 35 25 4 0 23 15 42 33 19 17 40
37 47 44 7 7 27 27 43 46 l30 33 23 -25 c12 -14 25 -34 28 -43z m-532 -343
c11 -19 23 -35 28 -35 4 0 8 -9 8 -19 0 -10 7 -21 15 -25 8 -3 15 -15 15 -26
0 -11 4 -20 8 -20 5 0 21 -22 36 -50 15 -27 31 -50 37 -50 5 0 9 -9 9 -19 0
-10 7 -21 15 -25 8 -3 15 -15 15 -26 0 -11 5 -20 10 -20 6 0 10 -7 10 -15 0
-8 5 -15 10 -15 6 0 10 -9 10 -20 0 -11 4 -20 9 -20 5 0 12 -13 16 -29 3 -15
14 -37 24 -47 9 -11 26 -40 37 -66 10 -27 22 -48 27 -48 4 0 7 -9 7 -20 0 -11
4 -20 9 -20 10 0 25 -48 22 -67 -1 -7 3 -13 9 -13 5 0 10 -9 10 -20 0 -11 5
-20 10 -20 6 0 10 -7 10 -15 0 -8 4 -15 9 -15 5 0 11 -15 15 -32 8 -42 29 -88
38 -88 5 0 8 -13 8 -30 0 -16 4 -30 9 -30 5 0 11 -18 15 -40 3 -22 11 -40 16
-40 6 0 10 -11 10 -25 0 -14 5 -25 10 -25 6 0 10 -13 10 -30 0 -16 4 -30 8
-30 4 0 13 -22 18 -50 8 -40 8 -50 -3 -50 -7 0 -13 -4 -13 -10 0 -5 -9 -10
-20 -10 -11 0 -20 -4 -20 -10 0 -5 -16 -12 -35 -16 -19 -3 -35 -10 -35 -15 0
-5 -9 -9 -20 -9 -11 0 -20 -3 -20 -8 0 -10 -75 -42 -100 -42 -11 0 -20 -4 -20
-10 0 -5 -7 -10 -15 -10 -8 0 -23 -4 -33 -9 -43 -23 -92 -41 -111 -41 -12 0
-21 -4 -21 -10 0 -5 -9 -10 -19 -10 -11 0 -22 -4 -26 -9 -3 -6 -26 -13 -50
-17 -25 -3 -48 -10 -51 -15 -3 -5 -16 -9 -30 -9 -13 0 -24 -4 -24 -10 0 -5
-11 -10 -24 -10 -14 0 -27 -4 -30 -9 -4 -5 -29 -12 -56 -16 -28 -4 -50 -11
-50 -16 0 -5 -16 -9 -35 -9 -19 0 -35 -4 -35 -10 0 -5 -13 -10 -29 -10 -17 0
-32 -4 -36 -9 -3 -5 -34 -13 -70 -16 -36 -4 -62 -11 -59 -16 3 -5 -11 -9 -30
-9 -20 0 -36 -4 -36 -10 0 -16 -37 -11 -44 6 -3 9 -6 43 -6 75 0 38 -4 58 -10
54 -6 -4 -10 17 -10 54 0 34 -4 61 -9 61 -5 0 -12 21 -15 48 -14 120 -30 212
-38 212 -4 0 -8 20 -8 45 0 25 -4 45 -9 45 -5 0 -11 17 -14 38 -2 20 -8 48
-12 62 -3 14 -9 44 -12 68 -3 23 -10 42 -14 42 -5 0 -9 16 -9 35 0 19 -4 35
-9 35 -5 0 -13 25 -16 55 -4 30 -11 58 -16 61 -5 3 -9 16 -9 30 0 13 -4 24 -9
24 -5 0 -11 12 -14 28 -19 95 -33 143 -40 136 -4 -4 -7 5 -7 19 0 15 -4 27
-10 27 -5 0 -10 10 -10 23 0 13 -4 27 -9 33 -4 5 -11 21 -15 37 -6 26 -5 27
34 27 22 0 40 5 40 10 0 6 13 10 29 10 17 0 32 4 35 9 3 5 33 12 66 16 33 4
60 11 60 16 0 5 14 9 30 9 17 0 30 5 30 10 0 6 11 10 24 10 14 0 27 4 31 9 3
5 30 13 60 16 30 4 52 11 49 16 -3 5 6 9 20 9 14 0 26 5 26 10 0 6 8 10 19 10
10 0 32 7 47 15 16 8 39 15 52 15 12 0 22 5 22 10 0 6 11 10 25 10 14 0 25 5
25 10 0 6 8 10 18 10 9 0 26 7 36 15 11 8 30 15 44 15 13 0 20 4 17 10 -3 6 3
10 14 10 12 0 21 5 21 10 0 6 12 10 28 10 21 0 32 -8 46 -35z m-1019 -327 c4
-18 7 -41 5 -52 -1 -11 3 -16 9 -12 7 5 11 -3 11 -18 0 -14 5 -26 10 -26 6 0
10 -11 10 -25 0 -14 4 -25 9 -25 5 0 12 -25 16 -55 3 -30 11 -55 16 -55 5 0 9
-13 9 -29 0 -17 5 -33 10 -36 6 -3 10 -17 10 -31 0 -13 4 -24 10 -24 5 0 12
-27 16 -60 4 -33 11 -60 15 -60 5 0 9 -16 9 -35 0 -19 4 -35 9 -35 5 0 11 -17
14 -37 14 -94 30 -169 38 -185 5 -10 9 -34 9 -53 0 -19 5 -35 10 -35 6 0 10
-18 10 -41 0 -22 4 -48 10 -58 5 -10 12 -55 16 -100 4 -44 11 -81 15 -81 5 0
9 -27 9 -60 0 -33 4 -60 10 -60 6 0 10 -13 10 -29 0 -32 -17 -41 -82 -41 -21
0 -38 -4 -38 -10 0 -5 -18 -10 -39 -10 -22 0 -42 -4 -45 -9 -3 -5 -23 -11 -43
-14 -21 -3 -60 -10 -88 -16 -27 -5 -74 -10 -102 -10 -29 -1 -53 -5 -53 -11 0
-5 -25 -10 -55 -10 -30 0 -55 -4 -55 -10 0 -5 -22 -10 -49 -10 -27 0 -62 -5
-77 -10 -15 -6 -79 -14 -141 -17 -62 -3 -110 -10 -108 -14 5 -7 -54 -13 -210
-21 l-50 -3 -11 215 c-6 118 -12 211 -14 205 -2 -5 -7 31 -11 80 -5 50 -13
126 -18 170 -6 44 -16 139 -23 212 -7 72 -16 135 -20 139 -5 4 -8 29 -8 56 0
26 -4 48 -9 48 -5 0 -11 28 -14 63 -3 34 -12 97 -20 140 l-13 77 63 0 c35 0
63 4 63 9 0 5 35 12 78 15 154 11 312 30 312 38 0 4 27 8 60 8 33 0 60 4 60 9
0 5 21 12 48 15 139 17 222 31 222 38 0 4 20 8 44 8 25 0 48 5 51 10 3 6 19
10 34 10 24 0 30 -5 36 -32z m-1155 -167 c0 -11 5 -23 10 -26 6 -3 10 -21 10
-40 0 -19 4 -45 10 -59 5 -15 13 -69 16 -121 4 -52 10 -95 15 -95 4 0 10 -28
13 -62 3 -35 12 -126 21 -203 10 -77 19 -182 22 -233 2 -53 8 -90 14 -87 5 4
9 -33 9 -90 0 -53 4 -104 9 -113 5 -9 10 -70 12 -134 l4 -118 -93 0 c-60 0
-91 -4 -87 -10 4 -6 -47 -10 -144 -10 -83 0 -151 -4 -151 -9 0 -9 -175 -16
-632 -27 l-258 -7 0 706 0 706 188 5 c178 5 436 17 732 34 257 15 280 15 280
-7z m3490 -458 c0 -13 4 -23 8 -23 10 0 48 -91 44 -107 -2 -7 2 -13 8 -13 5 0
10 -11 10 -25 0 -14 5 -25 10 -25 6 0 10 -8 10 -19 0 -10 7 -32 15 -47 8 -16
15 -42 15 -57 0 -16 4 -26 10 -22 6 4 10 -7 10 -24 0 -17 5 -31 10 -31 6 0 10
-10 10 -23 0 -13 5 -28 10 -33 6 -6 13 -34 17 -62 3 -29 10 -52 14 -52 5 0 9
-11 9 -25 0 -14 4 -33 9 -43 16 -32 32 -90 38 -141 3 -28 10 -51 14 -51 5 0 9
-20 9 -45 0 -25 5 -45 10 -45 6 0 10 -13 10 -30 l0 -30 -119 0 c-102 0 -122
-3 -142 -19 l-24 -19 -3 -296 c-3 -286 -4 -296 -22 -296 -11 0 -20 -4 -20 -10
0 -5 -7 -10 -15 -10 -8 0 -15 -4 -15 -9 0 -5 -13 -12 -30 -16 -16 -4 -32 -11
-35 -16 -4 -5 -15 -9 -26 -9 -10 0 -19 -4 -19 -10 0 -5 -9 -10 -20 -10 -11 0
-20 -4 -20 -10 0 -5 -18 -13 -40 -16 -22 -4 -37 -10 -34 -15 3 -5 -4 -9 -15
-9 -12 0 -21 -4 -21 -10 0 -5 -10 -10 -23 -10 -13 0 -28 -5 -35 -12 -6 -6 -13
-10 -15 -7 -3 2 -7 94 -10 205 l-7 201 186 138 c102 76 189 147 194 159 7 21
-4 70 -23 94 -7 9 -62 12 -212 12 l-202 0 -7 31 c-3 17 -6 49 -6 70 0 21 -4
41 -10 44 -5 3 -10 22 -10 41 0 19 -4 34 -10 34 -5 0 -10 18 -10 39 0 22 -4
42 -9 45 -5 4 -12 40 -16 81 -4 41 -11 75 -16 75 -5 0 -9 11 -9 24 0 14 -4 28
-10 31 -5 3 -10 16 -10 29 0 12 -4 26 -9 32 -9 8 -15 51 -12 82 1 6 7 12 15
12 8 0 16 3 18 8 5 12 65 42 83 42 9 0 13 5 10 10 -3 6 1 10 9 10 9 0 16 5 16
10 0 6 7 10 15 10 8 0 15 4 15 10 0 5 11 12 25 16 14 3 25 10 25 15 0 5 5 9
10 9 6 0 23 11 38 25 15 14 30 25 35 25 4 0 19 11 33 25 14 14 30 25 37 25 7
0 25 16 42 35 16 19 36 35 44 35 8 0 12 3 8 6 -3 4 12 22 34 40 23 19 38 34
35 34 -4 0 -1 6 6 14 11 12 17 7 35 -32 12 -26 22 -57 23 -69z m-690 -377 c0
-14 5 -28 10 -31 6 -4 8 -15 5 -26 -4 -11 -2 -19 4 -19 6 0 11 -16 11 -35 0
-19 5 -35 10 -35 6 0 10 -16 10 -35 0 -19 4 -35 9 -35 5 0 13 -36 17 -80 3
-44 11 -80 15 -80 5 0 9 -16 9 -35 0 -19 4 -35 9 -35 8 0 12 -22 27 -155 l6
-50 -324 -249 -323 -248 -3 253 c-3 322 12 299 -188 299 -125 0 -145 -2 -165
-19 l-24 -19 -3 -550 -2 -550 -31 -6 c-18 -3 -51 -6 -76 -6 -27 0 -42 -4 -38
-10 3 -5 -3 -10 -13 -10 -20 0 -20 1 -2 48 45 119 50 178 50 638 0 436 0 438
-22 461 -19 20 -31 23 -97 23 -42 0 -81 4 -88 8 -17 11 -22 172 -5 172 7 0 10
5 7 10 -4 6 8 10 29 10 20 0 36 5 36 10 0 6 13 10 29 10 17 0 32 4 36 9 3 5
34 13 70 16 36 4 65 11 65 16 0 5 13 9 29 9 17 0 33 5 36 10 3 6 17 10 30 10
13 0 27 4 30 10 3 5 28 12 55 16 28 4 50 10 50 15 0 5 11 9 25 9 14 0 25 5 25
10 0 6 11 10 24 10 14 0 27 4 30 9 4 5 29 12 56 16 28 4 50 11 50 16 0 5 9 9
19 9 11 0 21 3 23 8 4 9 98 42 121 42 10 0 15 5 12 10 -4 6 5 10 19 10 14 0
26 5 26 10 0 6 8 10 18 10 9 0 30 7 46 15 15 8 35 15 42 15 8 0 14 3 14 8 0 9
74 42 96 42 8 0 12 5 9 10 -3 6 3 10 14 10 12 0 21 5 21 10 0 6 5 10 10 10 6
0 10 -11 10 -24z m-1309 -489 c-1 -34 2 -64 9 -72 13 -16 5 -35 -14 -35 -7 0
-22 -10 -34 -23 -20 -22 -21 -30 -24 -457 -3 -394 -5 -439 -21 -475 -38 -85
-106 -126 -240 -144 -210 -29 -420 4 -490 77 -61 64 -62 66 -65 542 -4 470 -2
458 -57 481 -14 5 -5 8 33 8 28 1 52 6 52 11 0 6 22 10 49 10 27 0 61 4 75 10
15 5 69 13 121 16 52 4 95 11 95 15 0 5 25 9 55 9 30 0 55 4 55 9 0 4 36 12
80 15 44 4 82 12 85 17 4 5 26 9 51 9 24 0 44 5 44 10 0 6 18 10 39 10 22 0
43 5 46 11 4 5 19 9 33 7 25 -3 26 -5 23 -61z m-1319 -264 c-2 -88 1 -123 8
-113 6 10 10 -162 10 -532 0 -481 -2 -548 -15 -548 -12 0 -15 18 -15 99 0 92
-2 102 -26 130 l-26 31 -373 0 c-210 0 -396 4 -426 10 -110 21 -198 91 -246
194 -24 53 -28 73 -28 156 0 83 4 103 28 155 36 78 88 130 162 166 l60 29 400
0 c379 0 402 1 432 20 40 24 46 53 42 210 -3 76 0 120 6 120 6 0 9 -47 7 -127z
m-1197 59 c-6 -4 -36 -28 -68 -52 -32 -24 -69 -57 -82 -74 l-25 -31 0 83 0 82
92 0 c51 0 88 -4 83 -8z m-281 -354 c-58 -183 -56 -373 6 -554 19 -53 21 -80
18 -259 -1 -110 -4 -246 -6 -303 l-4 -102 -51 27 c-78 42 -215 184 -259 268
-77 149 -103 344 -64 495 40 161 156 324 290 412 68 44 80 47 70 16z m4310
-83 c3 -22 8 -100 11 -172 5 -128 4 -133 -15 -133 -11 0 -20 -4 -20 -10 0 -5
-9 -10 -19 -10 -11 0 -23 -4 -26 -10 -16 -26 -61 -7 -165 72 l-108 82 161 121
c103 77 165 118 169 111 4 -6 10 -29 12 -51z m499 -307 c11 -247 76 -394 222
-503 33 -24 84 -54 113 -66 37 -15 52 -27 52 -41 0 -10 -4 -16 -10 -13 -6 4
-10 -22 -10 -72 -1 -63 -3 -74 -12 -58 -6 11 -12 22 -14 24 -1 2 -14 -7 -28
-20 -14 -13 -42 -39 -63 -57 -21 -18 -58 -50 -83 -72 -25 -22 -49 -40 -54 -40
-5 0 -16 -8 -25 -17 -19 -21 -49 -41 -73 -49 -10 -4 -18 -10 -18 -15 0 -5 -7
-9 -15 -9 -8 0 -15 -4 -15 -9 0 -5 -13 -12 -30 -16 -16 -4 -30 -11 -30 -16 0
-5 -7 -9 -15 -9 -8 0 -15 -4 -15 -10 0 -5 -7 -10 -15 -10 -8 0 -15 -4 -15 -10
0 -5 -16 -12 -35 -16 -19 -3 -32 -10 -29 -15 3 -5 -4 -9 -15 -9 -12 0 -21 -3
-21 -8 0 -8 -73 -42 -90 -42 -6 0 -10 -4 -10 -10 0 -5 -9 -10 -20 -10 -11 0
-20 -4 -20 -10 0 -5 -6 -10 -14 -10 -7 0 -27 -7 -42 -15 -27 -14 -29 -14 -32
6 -2 12 1 26 7 32 6 6 11 35 11 64 0 29 5 53 10 53 6 0 10 35 10 85 0 50 4 85
10 85 6 0 10 28 10 63 0 35 3 98 6 140 l7 76 178 3 c199 3 205 5 216 72 8 48
0 56 -209 213 l-168 125 0 65 c0 35 -5 73 -10 83 -9 18 -6 20 30 26 22 4 40
10 40 15 0 5 9 9 20 9 11 0 20 5 20 10 0 6 6 10 14 10 7 0 27 7 42 15 16 8 37
15 47 15 9 0 17 5 17 10 0 6 9 10 20 10 11 0 20 3 20 8 0 8 73 42 90 42 6 0
10 5 10 10 0 6 6 10 14 10 10 0 14 -29 19 -122z m-1043 -169 c0 -5 -27 -11
-60 -15 -33 -4 -60 -11 -60 -15 0 -5 -11 -9 -25 -9 -25 0 -25 1 -25 90 l0 90
85 -67 c47 -37 85 -70 85 -74z m560 56 c0 -27 -14 -33 -27 -12 -14 23 -11 37
8 37 14 0 19 -7 19 -25z m-240 -300 l230 -180 -4 -70 c-3 -38 -8 -113 -12
-165 -3 -52 -10 -99 -15 -104 -5 -6 -9 -43 -9 -84 0 -46 -4 -71 -10 -67 -6 4
-10 -9 -10 -32 0 -21 -3 -68 -6 -104 -6 -64 -7 -66 -45 -82 -22 -9 -48 -17
-59 -17 -11 0 -20 -4 -20 -10 0 -5 -11 -10 -24 -10 -14 0 -27 -4 -30 -9 -4 -5
-24 -12 -46 -16 -22 -4 -42 -11 -46 -16 -3 -5 -16 -9 -30 -9 -13 0 -24 -4 -24
-10 0 -5 -11 -10 -25 -10 -14 0 -25 -4 -25 -9 0 -5 -25 -13 -55 -16 -30 -4
-55 -11 -55 -16 0 -5 -13 -9 -30 -9 -16 0 -30 -4 -30 -10 0 -5 -13 -10 -29
-10 -17 0 -32 -4 -36 -9 -3 -5 -30 -13 -60 -16 -30 -4 -55 -11 -55 -16 0 -5
-13 -9 -29 -9 -17 0 -33 -4 -36 -10 -3 -5 -21 -10 -40 -10 -19 0 -36 -4 -40
-9 -3 -6 -37 -13 -75 -17 -38 -3 -67 -10 -64 -15 3 -5 -13 -9 -35 -9 -23 0
-41 -4 -41 -10 0 -5 -14 -10 -31 -10 -17 0 -38 -4 -48 -10 -10 -5 -55 -12
-100 -16 -44 -4 -81 -10 -81 -14 0 -5 -20 -10 -45 -12 -28 -2 -41 0 -35 6 6 6
10 34 10 63 0 29 4 53 8 53 8 0 29 184 39 338 2 45 9 82 14 82 5 0 9 43 9 96
0 52 4 93 8 90 5 -3 12 104 16 237 7 227 8 243 28 264 15 16 33 23 60 23 21 0
38 4 38 9 0 5 24 11 53 14 28 3 64 8 80 12 l27 7 0 -95 c0 -87 2 -99 24 -124
l24 -28 140 0 c135 0 141 1 166 24 26 24 26 27 26 163 l0 138 26 0 c14 0 23 4
19 10 -4 6 8 10 29 10 19 0 38 5 41 10 3 6 16 10 28 10 12 0 40 7 62 15 22 8
43 13 48 12 4 -1 111 -83 237 -182z m-2405 -23 l47 -52 -34 0 c-18 0 -50 -3
-70 -6 l-38 -7 0 104 1 104 24 -46 c13 -25 44 -68 70 -97z m-1411 -65 l49 -32
-94 -6 c-52 -3 -101 -8 -109 -10 -8 -2 -15 2 -14 9 1 6 2 52 3 101 l1 90 57
-60 c32 -33 80 -75 107 -92z m2577 -194 c-6 -23 -11 -96 -11 -162 0 -74 -4
-121 -10 -121 -6 0 -10 -35 -10 -84 0 -47 -4 -87 -9 -90 -4 -3 -11 -67 -15
-143 -4 -76 -11 -142 -17 -148 -5 -5 -9 -33 -9 -62 0 -29 -4 -53 -10 -53 -6 0
-10 -28 -10 -63 0 -59 -2 -65 -26 -76 -15 -6 -69 -14 -120 -18 -52 -3 -94 -10
-94 -15 0 -4 -26 -8 -58 -8 -32 0 -62 -3 -66 -7 -8 -9 -197 -31 -323 -39 -46
-3 -83 -10 -83 -15 0 -5 -40 -9 -88 -9 -48 0 -92 -4 -97 -9 -6 -5 -70 -11
-142 -15 l-133 -7 0 56 c0 30 5 55 10 55 6 0 10 45 11 113 0 61 5 177 11 257
5 80 14 255 19 390 4 135 11 278 14 318 l7 72 73 0 c40 0 96 5 123 11 43 10
56 9 105 -10 132 -49 188 -56 437 -55 221 0 241 2 331 26 53 14 118 37 145 51
l49 25 3 -62 c2 -33 -2 -80 -7 -103z m-1352 -30 c0 -76 -4 -129 -8 -118 -4 10
-11 -128 -14 -307 -4 -180 -12 -339 -17 -353 -6 -14 -10 -78 -10 -141 0 -69
-4 -114 -10 -114 -5 0 -10 -18 -10 -40 0 -34 -3 -40 -21 -40 -11 0 -17 -4 -14
-10 4 -7 -48 -10 -147 -10 -85 0 -158 -4 -164 -9 -9 -9 -172 -15 -701 -27
l-283 -6 0 636 0 636 230 0 c226 0 230 0 230 -21 0 -36 110 -283 137 -308 21
-18 34 -22 62 -17 19 3 40 11 47 18 18 17 134 287 134 309 0 17 18 18 240 21
212 3 241 5 257 21 9 9 28 17 40 17 23 0 23 -1 22 -137z m-2644 -15 c41 -109
127 -269 192 -361 74 -105 255 -286 360 -360 92 -65 252 -151 361 -192 l72
-28 0 -1044 0 -1043 -23 0 c-13 0 -75 9 -138 21 -501 90 -972 282 -1389 567
-666 456 -1152 1103 -1399 1865 -67 207 -141 531 -141 619 l0 28 1038 0 1039
0 28 -72z m6317 -135 c-2 -32 -8 -62 -13 -67 -5 -6 -9 -29 -9 -53 0 -24 -4
-51 -9 -61 -5 -9 -14 -55 -20 -102 -18 -139 -23 -160 -32 -160 -5 0 -9 -20 -9
-45 0 -25 -4 -45 -9 -45 -4 0 -11 -23 -14 -51 -6 -51 -22 -109 -38 -141 -5
-10 -9 -29 -9 -43 0 -14 -4 -25 -9 -25 -4 0 -11 -23 -14 -52 -4 -28 -11 -56
-17 -62 -5 -5 -10 -20 -10 -33 0 -13 -4 -23 -10 -23 -5 0 -10 -14 -10 -31 0
-17 -4 -28 -10 -24 -6 4 -10 -6 -10 -22 0 -15 -7 -41 -15 -57 -8 -15 -15 -36
-15 -46 0 -24 -25 -32 -57 -17 -21 9 -27 9 -31 -1 -6 -18 -74 -82 -87 -82 -3
0 -18 -12 -33 -27 -41 -40 -83 -73 -112 -86 -14 -6 -32 -20 -41 -29 -9 -10
-21 -18 -28 -18 -6 0 -11 -4 -11 -9 0 -5 -13 -12 -30 -16 -16 -4 -30 -11 -30
-16 0 -5 -7 -9 -15 -9 -8 0 -15 -4 -15 -10 0 -5 -7 -10 -15 -10 -8 0 -15 -4
-15 -9 0 -5 -15 -13 -32 -16 -18 -4 -35 -10 -38 -14 -10 -12 -110 -61 -125
-61 -8 0 -15 -4 -15 -10 0 -5 -9 -10 -20 -10 -11 0 -20 -4 -20 -10 0 -5 -6
-10 -14 -10 -7 0 -27 -7 -42 -15 -16 -8 -37 -15 -46 -15 -10 0 -18 -4 -18 -10
0 -5 -9 -10 -20 -10 -11 0 -20 -5 -20 -12 0 -6 -2 -9 -5 -6 -3 3 1 17 8 31 8
15 17 24 20 20 4 -3 7 2 7 13 0 10 7 32 15 48 8 15 15 37 15 47 0 11 5 19 10
19 6 0 10 11 10 24 0 14 5 28 10 31 6 4 8 10 5 15 -3 5 -1 11 5 15 5 3 10 17
10 31 0 13 5 24 10 24 6 0 10 11 10 25 0 14 4 25 9 25 5 0 12 20 15 45 4 24
11 47 17 50 5 4 9 17 9 30 0 13 5 27 10 30 6 3 10 17 10 31 0 13 4 24 9 24 4
0 11 23 14 52 4 28 11 56 17 62 5 5 10 20 10 32 0 13 5 26 10 29 6 3 10 24 10
46 0 22 4 38 9 35 5 -3 12 28 16 69 4 41 11 77 16 81 5 3 9 21 9 40 0 19 5 34
10 34 6 0 10 21 10 46 0 29 4 43 11 39 7 -5 9 6 7 31 -3 36 0 40 32 56 19 10
45 17 58 18 13 0 20 4 17 10 -4 6 5 10 19 10 14 0 26 5 26 10 0 6 7 10 15 10
8 0 15 4 15 10 0 5 16 12 35 16 19 3 35 9 35 13 0 4 16 13 35 21 19 8 35 17
35 21 0 5 16 11 35 15 19 3 32 10 29 15 -3 5 2 9 10 9 9 0 16 3 16 8 0 4 20
16 45 27 25 11 45 23 45 28 0 4 7 7 15 7 8 0 15 4 15 9 0 5 8 11 18 15 17 5
52 26 62 36 3 3 23 18 45 35 22 16 50 39 62 50 37 34 52 45 60 45 4 1 22 16
38 35 17 18 32 34 35 34 3 1 3 -25 2 -56z m-950 -531 c-7 -2 -12 -23 -12 -48
0 -24 -4 -44 -9 -44 -5 0 -12 -34 -16 -75 -4 -41 -11 -75 -16 -75 -5 0 -9 -15
-9 -34 0 -19 -4 -37 -9 -40 -4 -3 -11 -22 -14 -43 -3 -21 -9 -49 -12 -63 -4
-14 -9 -37 -12 -52 -3 -16 -9 -28 -14 -28 -5 0 -9 -13 -9 -30 0 -16 -4 -30 -9
-30 -4 0 -11 -23 -14 -52 -4 -28 -11 -56 -17 -62 -5 -5 -10 -20 -10 -33 0 -13
-4 -23 -10 -23 -5 0 -10 -9 -10 -20 0 -11 -4 -20 -9 -20 -5 0 -12 -22 -16 -50
-4 -27 -11 -50 -16 -50 -5 0 -9 -11 -9 -25 0 -14 -4 -25 -10 -25 -5 0 -10 -9
-10 -20 0 -11 -4 -20 -9 -20 -5 0 -11 -18 -15 -40 -3 -22 -11 -40 -16 -40 -6
0 -10 -9 -10 -20 0 -11 -4 -20 -10 -20 -5 0 -10 -12 -10 -26 0 -14 -4 -23 -9
-20 -5 3 -11 -8 -15 -24 -4 -21 -11 -30 -26 -30 -11 0 -20 -4 -20 -10 0 -5 -9
-10 -19 -10 -11 0 -23 -4 -26 -10 -3 -5 -28 -12 -55 -16 -27 -4 -47 -10 -44
-15 3 -5 -9 -9 -25 -9 -17 0 -31 -4 -31 -10 0 -5 -13 -10 -30 -10 -16 0 -30
-4 -30 -10 0 -5 -27 -12 -60 -16 -33 -3 -57 -10 -54 -15 3 -5 -11 -9 -30 -9
-20 0 -36 -4 -36 -9 0 -9 -24 -15 -132 -33 -38 -7 -68 -15 -68 -20 0 -4 -15
-8 -34 -8 -19 0 -38 -4 -41 -10 -3 -5 -21 -10 -39 -10 -17 0 -36 -4 -42 -10
-5 -5 -42 -12 -82 -16 -39 -4 -72 -11 -72 -15 0 -5 -19 -9 -43 -9 -24 0 -47
-4 -52 -9 -6 -5 -28 -11 -50 -14 -22 -3 -75 -11 -118 -18 -72 -11 -107 -7 -80
9 6 4 14 28 18 55 4 26 11 47 16 47 5 0 9 11 9 25 0 14 5 25 10 25 6 0 10 11
10 24 0 14 4 27 9 30 5 4 12 29 16 56 4 27 11 52 16 56 5 3 9 18 9 35 0 16 5
29 10 29 6 0 10 14 10 30 0 17 4 30 8 30 8 0 26 76 39 163 3 20 9 37 13 37 4
0 10 17 13 38 3 20 9 51 12 67 4 17 9 47 12 68 3 20 9 40 14 43 5 3 9 25 9 50
0 24 4 44 9 44 4 0 11 32 15 72 11 116 11 118 62 118 24 0 44 5 44 10 0 6 20
10 44 10 25 0 47 4 50 9 3 5 42 12 86 16 44 4 80 11 80 16 0 5 18 9 40 9 22 0
40 5 40 10 0 6 15 10 34 10 19 0 37 4 41 9 3 6 37 13 75 17 38 3 67 10 64 15
-3 5 13 9 35 9 23 0 41 5 41 10 0 6 14 10 30 10 17 0 30 4 30 10 0 5 27 12 60
16 33 4 60 11 60 15 0 5 11 9 24 9 14 0 28 5 31 10 3 6 17 10 30 10 13 0 26 4
29 9 4 5 29 12 56 16 28 4 50 11 50 16 0 5 11 9 25 9 14 0 25 5 25 10 0 6 11
10 24 10 14 0 27 4 31 9 3 6 26 13 50 17 25 3 45 10 45 15 0 5 11 9 25 9 14 0
25 4 25 9 0 13 44 18 49 7 2 -6 -1 -12 -7 -14z m-1500 -412 c-2 -22 -8 -40
-13 -40 -5 0 -9 -20 -9 -45 0 -25 -4 -45 -9 -45 -4 0 -11 -35 -15 -77 -3 -42
-11 -82 -16 -87 -6 -6 -10 -25 -10 -43 0 -18 -4 -33 -10 -33 -5 0 -10 -16 -10
-35 0 -19 -4 -35 -8 -35 -4 0 -13 -30 -20 -67 -19 -106 -24 -123 -33 -123 -5
0 -9 -16 -9 -35 0 -19 -4 -35 -9 -35 -5 0 -12 -25 -16 -55 -3 -30 -11 -55 -16
-55 -5 0 -9 -11 -9 -25 0 -14 -4 -25 -10 -25 -5 0 -10 -11 -10 -24 0 -14 -5
-28 -11 -32 -6 -3 -9 -15 -6 -25 3 -11 1 -19 -4 -19 -5 0 -9 -13 -9 -30 0 -16
-4 -30 -10 -30 -5 0 -10 -11 -10 -25 0 -14 -4 -25 -10 -25 -5 0 -10 -11 -10
-25 0 -21 -5 -25 -29 -25 -17 0 -32 -4 -35 -9 -4 -5 -60 -12 -126 -16 -66 -4
-120 -11 -120 -16 0 -5 -29 -9 -65 -9 -37 0 -65 -4 -65 -10 0 -6 -35 -10 -86
-10 -47 0 -93 -4 -102 -9 -10 -5 -95 -12 -189 -16 -95 -4 -170 -12 -167 -16 3
-5 -18 -9 -46 -9 -47 0 -50 1 -40 19 5 11 10 38 10 60 0 23 5 41 10 41 6 0 10
25 10 55 0 30 5 55 10 55 6 0 10 19 10 43 0 39 8 92 32 227 5 30 12 82 15 115
3 33 8 62 12 65 7 4 21 149 37 376 l5 72 52 6 c119 15 247 25 325 26 53 0 81
4 77 10 -4 6 25 10 79 10 51 0 86 4 86 10 0 6 24 10 54 10 30 0 66 4 79 9 14
6 75 13 136 17 61 4 108 11 105 15 -3 5 24 9 60 9 36 0 66 4 66 9 0 6 21 12
48 14 26 2 49 4 52 5 3 1 4 -16 2 -38z m-1298 -127 c-4 -10 -12 -76 -17 -148
-4 -71 -13 -138 -18 -147 -5 -10 -9 -49 -9 -88 0 -38 -4 -70 -9 -70 -4 0 -11
-43 -15 -95 -3 -52 -11 -106 -16 -121 -6 -14 -10 -45 -10 -70 0 -24 -4 -44
-10 -44 -5 0 -10 -25 -10 -55 0 -30 -4 -55 -9 -55 -4 0 -11 -37 -15 -82 -4
-46 -12 -95 -19 -110 -11 -26 -16 -28 -72 -28 -34 0 -65 -4 -71 -9 -10 -11
-189 -18 -670 -27 l-341 -6 -5 559 c-3 307 -5 559 -4 560 1 1 212 5 469 9 258
4 462 11 455 15 -7 5 62 9 155 9 104 0 167 4 167 10 0 6 18 10 41 10 36 0 40
-2 33 -17z m3420 -195 c-8 -18 -17 -41 -21 -50 -3 -10 -9 -18 -14 -18 -5 0 -9
-9 -9 -20 0 -25 -32 -100 -42 -100 -5 0 -8 -11 -8 -25 0 -14 -4 -25 -9 -25 -5
0 -12 -16 -15 -35 -4 -19 -11 -35 -16 -35 -6 0 -10 -9 -10 -20 0 -11 -4 -20
-10 -20 -5 0 -10 -7 -10 -15 0 -8 -4 -15 -9 -15 -5 0 -12 -16 -15 -35 -4 -19
-11 -35 -16 -35 -6 0 -10 -9 -10 -19 0 -11 -3 -21 -7 -23 -5 -1 -21 -28 -37
-58 -16 -30 -31 -57 -35 -60 -4 -3 -15 -25 -26 -50 -11 -25 -27 -52 -37 -61
-10 -9 -18 -21 -18 -27 0 -15 -34 -72 -42 -72 -5 0 -8 -7 -8 -15 0 -8 -4 -15
-10 -15 -5 0 -12 -11 -16 -25 -3 -14 -9 -25 -13 -25 -4 0 -15 -16 -24 -35 -9
-19 -21 -35 -27 -35 -5 0 -10 -7 -10 -16 0 -9 -8 -24 -19 -33 -10 -9 -21 -26
-25 -38 -4 -13 -12 -23 -17 -23 -5 0 -9 -5 -9 -11 0 -16 -122 -139 -138 -139
-7 0 -10 -4 -7 -10 3 -5 1 -10 -5 -10 -6 0 -22 -11 -36 -25 -14 -14 -30 -25
-37 -25 -7 0 -19 -9 -27 -20 -8 -11 -20 -20 -26 -20 -6 0 -17 -7 -24 -15 -7
-8 -21 -15 -31 -15 -11 0 -19 -4 -19 -10 0 -5 -7 -10 -15 -10 -8 0 -15 -3 -15
-7 0 -10 -58 -43 -75 -43 -7 0 -15 -3 -17 -7 -5 -12 -106 -63 -123 -63 -8 0
-15 -4 -15 -10 0 -5 -6 -10 -14 -10 -7 0 -27 -7 -42 -15 -16 -8 -37 -15 -46
-15 -10 0 -18 -4 -18 -10 0 -5 -11 -10 -25 -10 -14 0 -25 -4 -25 -10 0 -5 -9
-10 -20 -10 -11 0 -20 -4 -20 -10 0 -5 -22 -12 -50 -16 -27 -4 -50 -10 -50
-15 0 -5 -11 -9 -25 -9 -14 0 -25 -4 -25 -10 0 -5 -8 -10 -18 -10 -10 0 -23
-5 -28 -10 -6 -6 -34 -13 -62 -17 -28 -3 -49 -10 -46 -14 3 -5 -5 -9 -17 -9
-18 0 -12 9 37 59 69 70 116 121 109 121 -5 0 30 42 78 92 15 17 34 42 41 57
8 14 24 33 35 41 12 8 21 18 21 23 0 7 9 20 38 52 6 7 12 21 12 29 0 9 5 16
10 16 6 0 18 16 27 35 9 19 20 35 24 35 4 0 20 22 36 50 15 27 31 50 36 50 4
0 7 7 7 15 0 8 4 15 8 15 5 0 22 25 37 55 16 30 32 55 35 55 3 0 14 20 25 45
11 25 23 45 27 45 5 0 8 7 8 15 0 8 4 15 9 15 5 0 12 16 15 35 4 19 11 35 16
35 6 0 10 7 10 15 0 8 5 15 10 15 6 0 10 9 10 20 0 11 4 20 8 20 4 0 16 23 27
50 11 28 23 50 27 50 4 0 8 8 8 19 0 25 17 38 63 46 20 4 37 11 37 16 0 5 9 9
20 9 11 0 20 5 20 10 0 6 6 10 14 10 7 0 27 7 42 15 16 8 39 15 52 15 13 0 20
4 17 10 -3 6 3 10 14 10 11 0 22 4 26 9 3 5 19 12 35 16 17 4 30 11 30 16 0 5
9 9 20 9 11 0 20 3 20 8 0 8 73 42 90 42 6 0 10 5 10 10 0 6 7 10 15 10 8 0
15 5 15 10 0 6 7 10 15 10 8 0 15 4 15 9 0 5 14 12 30 16 17 4 30 11 30 16 0
5 7 9 15 9 8 0 15 4 15 8 0 5 17 17 37 28 21 10 48 29 61 42 12 12 26 22 31
22 4 0 29 19 54 43 66 60 109 97 113 97 2 0 -4 -15 -12 -32z m-1051 -565 c-7
-2 -13 -13 -13 -24 0 -10 -4 -19 -10 -19 -5 0 -10 -7 -10 -15 0 -8 -4 -15 -9
-15 -5 0 -12 -16 -15 -35 -4 -19 -11 -35 -16 -35 -6 0 -10 -9 -10 -20 0 -11
-4 -20 -10 -20 -5 0 -10 -7 -10 -15 0 -8 -4 -15 -10 -15 -5 0 -10 -9 -10 -20
0 -11 -7 -23 -15 -26 -8 -4 -15 -15 -15 -25 0 -10 -4 -19 -10 -19 -5 0 -10 -7
-10 -15 0 -8 -5 -15 -11 -15 -5 0 -7 -4 -4 -10 3 -5 1 -10 -4 -10 -6 0 -11 -6
-11 -14 0 -7 -7 -19 -15 -26 -8 -7 -25 -32 -37 -56 -12 -24 -25 -44 -30 -44
-4 0 -8 -6 -8 -14 0 -8 -3 -16 -7 -18 -5 -1 -20 -22 -36 -45 -15 -24 -32 -43
-37 -43 -6 0 -10 -9 -10 -20 0 -10 -6 -23 -14 -27 -7 -4 -21 -23 -30 -40 -9
-18 -21 -33 -26 -33 -5 0 -11 -9 -15 -19 -3 -10 -20 -34 -38 -53 -18 -19 -41
-47 -52 -63 -11 -15 -32 -41 -47 -56 -15 -16 -25 -29 -22 -29 3 0 -27 -33 -68
-74 -40 -41 -93 -97 -118 -125 -34 -38 -52 -51 -73 -51 -16 0 -26 -4 -22 -10
4 -6 -10 -10 -34 -10 -23 0 -41 -4 -41 -9 0 -5 -17 -11 -37 -15 -126 -19 -183
-31 -183 -38 0 -4 -18 -8 -39 -8 -22 0 -43 -4 -46 -10 -3 -5 -24 -10 -46 -10
-22 0 -48 -4 -58 -10 -10 -5 -55 -12 -100 -16 -44 -4 -81 -11 -81 -15 0 -5
-24 -9 -53 -9 -29 0 -57 -4 -63 -9 -5 -5 -53 -12 -107 -16 l-98 -7 21 34 c11
18 23 40 27 48 4 8 14 22 23 30 10 8 20 25 24 38 4 12 12 22 17 22 5 0 9 6 9
13 0 7 9 19 20 27 11 8 20 20 20 26 0 17 33 74 43 74 4 0 7 7 7 15 0 8 4 15 9
15 5 0 11 12 14 28 3 15 14 36 24 47 20 22 53 86 53 104 0 6 5 11 10 11 6 0
10 9 10 20 0 11 5 20 10 20 6 0 10 7 10 15 0 8 5 15 11 15 5 0 8 4 5 8 -3 5 4
23 15 40 10 18 19 39 19 47 0 8 3 15 8 15 8 0 42 73 42 90 0 6 5 10 10 10 6 0
10 9 10 20 0 11 4 20 9 20 5 0 11 18 15 40 3 22 11 40 16 40 6 0 10 9 10 19 0
11 5 23 10 26 6 3 10 15 10 26 0 10 5 19 10 19 6 0 10 9 10 19 0 41 11 51 55
51 24 0 47 5 50 10 3 6 24 10 46 10 22 0 48 4 58 10 10 5 55 12 100 16 44 4
81 11 81 15 0 5 20 9 45 9 25 0 45 5 45 10 0 6 14 10 31 10 17 0 39 5 49 10
11 6 46 13 80 17 33 3 60 10 60 14 0 5 15 9 34 9 19 0 37 4 40 9 3 5 35 12 71
16 36 3 65 11 65 16 0 5 14 9 30 9 17 0 30 5 30 10 0 6 13 10 29 10 17 0 32 4
36 9 3 5 30 13 60 16 30 4 55 11 55 16 0 5 14 9 30 9 17 0 30 5 30 10 0 6 8
10 18 10 10 0 22 4 28 9 5 5 18 11 29 14 27 6 63 7 48 0z m-1419 -338 c-4 -8
-10 -15 -14 -15 -4 0 -11 -20 -14 -45 -4 -25 -11 -45 -16 -45 -4 0 -14 -20
-21 -44 -7 -25 -17 -42 -21 -40 -4 3 -8 -2 -8 -10 0 -22 -33 -96 -42 -96 -5 0
-8 -9 -8 -20 0 -11 -5 -20 -11 -20 -6 0 -9 -6 -6 -14 3 -8 -3 -23 -14 -34 -10
-12 -19 -28 -19 -37 0 -8 -4 -15 -9 -15 -9 0 -26 -48 -23 -62 1 -5 -2 -8 -8
-8 -5 0 -10 -7 -10 -15 0 -8 -4 -15 -10 -15 -5 0 -10 -9 -10 -20 0 -11 -4 -20
-10 -20 -5 0 -10 -6 -10 -14 0 -8 -6 -21 -13 -28 -7 -7 -20 -28 -28 -45 -7
-18 -17 -33 -20 -33 -4 0 -10 -11 -13 -25 -4 -14 -11 -25 -16 -25 -6 0 -10 -9
-10 -20 0 -11 -5 -20 -10 -20 -6 0 -18 -16 -27 -35 -9 -19 -20 -35 -25 -35 -4
0 -8 -7 -8 -15 0 -8 -4 -15 -8 -15 -5 0 -17 -16 -28 -35 -10 -19 -22 -35 -26
-35 -5 0 -8 -7 -8 -15 0 -8 -4 -15 -9 -15 -5 0 -12 -8 -15 -17 -10 -32 -53
-73 -75 -73 -11 0 -21 -4 -21 -10 0 -6 -35 -10 -86 -10 -47 0 -93 -4 -103 -9
-10 -6 -111 -13 -224 -17 -113 -4 -204 -11 -201 -16 3 -4 -15 -8 -40 -8 -25 0
-46 5 -46 10 0 6 5 10 10 10 6 0 10 11 10 25 0 14 4 25 9 25 5 0 12 20 15 45
4 24 11 47 17 50 5 4 9 15 9 26 0 10 5 19 10 19 6 0 10 11 10 25 0 14 4 25 9
25 5 0 12 25 16 55 3 30 11 57 16 60 5 4 9 17 9 30 0 13 5 27 10 30 6 3 10 19
10 36 0 16 4 29 9 29 4 0 11 27 15 60 4 33 11 60 16 60 6 0 10 13 10 29 0 17
5 33 10 36 6 3 10 22 10 41 0 19 4 34 9 34 5 0 12 36 16 80 4 44 11 80 16 80
5 0 9 15 9 34 0 19 5 38 10 41 6 3 10 15 10 26 0 14 7 19 29 19 17 0 33 5 36
10 3 6 44 10 90 10 46 0 95 4 108 9 14 6 102 13 196 17 94 4 168 11 165 15 -3
5 27 9 65 9 39 0 71 4 71 9 0 5 28 12 63 15 34 3 91 9 127 14 100 14 100 14
94 -3z m-1134 -119 c0 -8 -4 -17 -9 -20 -5 -3 -12 -39 -16 -81 -4 -41 -11 -77
-16 -81 -5 -3 -9 -23 -9 -45 0 -21 -4 -39 -10 -39 -5 0 -10 -16 -10 -35 0 -19
-4 -35 -9 -35 -4 0 -11 -27 -15 -60 -4 -33 -11 -60 -16 -60 -6 0 -10 -13 -10
-30 0 -16 -4 -30 -9 -30 -4 0 -11 -17 -14 -37 -3 -21 -9 -49 -12 -63 -4 -14
-9 -37 -12 -52 -3 -16 -9 -28 -14 -28 -5 0 -9 -11 -9 -25 0 -14 -4 -25 -10
-25 -5 0 -10 -11 -10 -25 0 -14 -11 -53 -25 -87 -14 -34 -25 -67 -25 -75 0 -7
-4 -13 -9 -13 -5 0 -11 -18 -15 -40 l-6 -40 -75 0 c-43 0 -75 -4 -75 -10 0 -6
-118 -10 -334 -10 l-335 0 -5 223 c-4 122 -9 354 -12 515 l-5 292 183 0 c325
0 799 13 786 21 -7 5 25 9 75 9 69 0 87 -3 87 -14z m2734 -425 c-16 -15 -49
-52 -74 -81 -54 -63 -360 -374 -360 -365 0 6 -51 -40 -107 -97 -21 -21 -41
-38 -46 -38 -5 0 -22 -14 -38 -31 -16 -17 -39 -32 -51 -33 -13 -2 -55 -35 -96
-74 -40 -40 -77 -72 -82 -72 -6 0 -24 -13 -41 -30 -17 -16 -40 -32 -50 -35
-11 -4 -19 -11 -19 -16 0 -5 -7 -9 -15 -9 -8 0 -15 -4 -15 -10 0 -5 -11 -12
-25 -16 -14 -3 -25 -10 -25 -15 0 -5 -5 -9 -10 -9 -6 0 -21 -9 -33 -20 -12
-12 -32 -23 -44 -26 -13 -4 -23 -10 -23 -15 0 -5 -5 -9 -10 -9 -6 0 -21 -9
-33 -21 -12 -11 -34 -23 -49 -26 -16 -3 -28 -9 -28 -14 0 -5 -7 -9 -15 -9 -8
0 -15 -4 -15 -10 0 -5 -9 -10 -20 -10 -11 0 -20 -4 -20 -10 0 -5 -18 -13 -40
-16 -22 -4 -40 -10 -40 -15 0 -5 -9 -9 -20 -9 -11 0 -20 -4 -20 -10 0 -5 -9
-10 -19 -10 -11 0 -22 -4 -26 -9 -3 -6 -26 -13 -50 -17 -25 -3 -45 -10 -45
-15 0 -5 -11 -9 -25 -9 -14 0 -25 -4 -25 -9 0 -5 -22 -12 -50 -16 -27 -4 -52
-11 -56 -16 -3 -5 -18 -9 -35 -9 -16 0 -29 -4 -29 -10 0 -5 -13 -10 -28 -10
-15 0 -32 -4 -38 -10 -5 -5 -38 -13 -72 -16 -34 -4 -62 -11 -62 -15 0 -5 -18
-9 -40 -9 -22 0 -40 -4 -40 -10 0 -5 -15 -10 -33 -10 -18 0 -37 -4 -43 -9 -5
-6 -50 -13 -101 -17 -51 -4 -90 -11 -87 -15 3 -5 -17 -9 -45 -9 -27 0 -53 -4
-56 -10 -3 -5 -16 -10 -28 -9 -26 0 67 48 96 49 10 0 15 5 12 10 -3 6 3 10 14
10 12 0 21 3 21 8 0 8 73 42 90 42 6 0 10 5 10 10 0 6 9 10 19 10 11 0 21 3
23 8 5 11 64 42 82 42 9 0 16 3 16 8 0 4 20 16 45 27 25 11 45 23 45 28 0 4 7
7 15 7 8 0 15 3 15 8 0 4 20 16 45 27 25 11 45 23 45 28 0 4 5 7 10 7 6 0 21
9 33 20 12 12 32 23 44 26 13 4 23 10 23 15 0 5 7 9 15 9 8 0 15 4 15 8 0 5
16 17 35 28 19 10 35 22 35 26 0 5 7 8 15 8 8 0 15 4 15 8 0 5 16 17 35 28 19
10 35 22 35 26 0 5 5 8 10 8 6 0 23 11 38 25 15 14 30 25 35 25 4 0 20 11 35
25 15 14 33 25 40 25 7 0 10 5 7 10 -3 6 -1 10 5 10 6 0 22 10 35 23 36 33 53
47 60 47 6 0 32 22 94 83 22 20 42 37 45 37 3 0 33 26 65 58 33 31 66 62 73
68 7 6 20 21 28 33 10 14 29 23 62 27 26 4 48 10 48 15 0 5 14 9 30 9 17 0 30
5 30 10 0 6 13 10 29 10 17 0 33 4 36 10 3 5 28 12 55 16 27 4 47 10 44 15 -3
5 4 9 16 9 11 0 29 5 40 10 11 6 29 14 40 20 10 5 37 13 60 16 22 4 40 10 40
15 0 5 9 9 20 9 11 0 20 5 20 10 0 6 6 10 14 10 7 0 27 7 42 15 16 8 39 15 52
15 13 0 20 4 17 10 -3 6 1 10 9 10 8 0 35 11 60 25 25 14 52 25 60 25 9 0 16
4 16 8 0 4 20 16 45 26 25 11 45 23 45 28 0 4 9 8 20 8 11 0 20 5 20 10 0 6 7
10 15 10 8 0 15 4 15 8 0 7 34 29 49 31 2 1 -9 -12 -25 -28z m-1174 -448 c-14
-10 -39 -32 -56 -50 -17 -18 -34 -33 -38 -33 -4 0 -18 -10 -31 -22 -13 -13
-42 -39 -66 -58 -23 -19 -52 -45 -65 -57 -13 -13 -27 -23 -31 -23 -5 0 -26
-16 -46 -35 -20 -19 -42 -35 -47 -35 -6 0 -10 -4 -10 -10 0 -5 -11 -12 -25
-16 -14 -3 -22 -10 -19 -15 3 -5 -2 -9 -10 -9 -9 0 -16 -3 -16 -8 0 -4 -16
-16 -35 -26 -19 -11 -35 -23 -35 -28 0 -4 -7 -8 -15 -8 -8 0 -15 -4 -15 -10 0
-5 -11 -12 -25 -16 -14 -3 -25 -10 -25 -15 0 -5 -7 -9 -15 -9 -8 0 -15 -4 -15
-8 0 -5 -17 -17 -37 -28 -21 -10 -45 -26 -53 -34 -8 -8 -33 -24 -55 -35 -22
-11 -41 -23 -43 -27 -2 -5 -10 -8 -18 -8 -8 0 -14 -3 -14 -8 0 -4 -20 -16 -45
-27 -25 -11 -45 -23 -45 -26 0 -3 -16 -11 -35 -19 -19 -8 -35 -17 -35 -21 0
-5 -16 -11 -35 -15 -19 -3 -35 -10 -35 -15 0 -5 -7 -9 -15 -9 -8 0 -15 -4 -15
-9 0 -5 -13 -12 -30 -16 -16 -4 -32 -11 -35 -16 -4 -5 -15 -9 -26 -9 -10 0
-19 -4 -19 -10 0 -5 -7 -10 -15 -10 -8 0 -15 -4 -15 -10 0 -5 -16 -12 -35 -16
-19 -3 -35 -10 -35 -15 0 -5 -9 -9 -20 -9 -11 0 -20 -4 -20 -10 0 -5 -9 -10
-20 -10 -11 0 -20 -4 -20 -9 0 -5 -18 -12 -40 -16 -22 -4 -40 -11 -40 -16 0
-5 -9 -9 -20 -9 -11 0 -20 -4 -20 -10 0 -5 -6 -10 -14 -10 -7 0 -27 -7 -42
-15 -16 -8 -53 -15 -82 -15 -30 0 -51 -4 -47 -9 4 -7 -175 -21 -193 -15 -1 0
15 9 35 20 21 10 40 21 43 24 13 13 79 60 85 60 3 0 16 10 29 23 29 28 60 54
111 92 22 16 50 40 63 52 13 13 29 23 37 23 7 0 16 8 19 18 3 10 15 24 27 32
26 18 238 231 296 297 23 26 58 66 77 88 20 22 36 44 36 48 0 4 20 27 45 52
41 40 50 44 108 49 174 14 307 31 307 38 0 4 20 8 45 8 25 0 45 4 45 9 0 5 21
11 48 14 126 14 232 32 232 39 0 4 15 8 34 8 19 0 37 4 40 9 3 5 35 12 71 16
36 3 67 11 70 16 4 5 11 9 18 9 6 0 0 -8 -13 -17z m-1110 -197 c0 -2 -12 -17
-27 -34 -16 -16 -44 -49 -63 -73 -71 -89 -419 -425 -453 -438 -10 -4 -24 -15
-82 -68 -13 -13 -27 -23 -30 -23 -6 0 -20 -11 -50 -37 -7 -7 -18 -13 -24 -13
-6 0 -11 -4 -11 -9 0 -5 -18 -18 -40 -29 -22 -10 -37 -22 -33 -26 3 -3 -1 -6
-10 -6 -10 0 -17 -4 -17 -10 0 -5 -7 -10 -15 -10 -8 0 -15 -4 -15 -10 0 -5
-11 -12 -25 -16 -14 -3 -25 -10 -25 -15 0 -5 -6 -9 -14 -9 -8 0 -16 -4 -18 -8
-1 -5 -47 -12 -101 -15 l-97 -6 22 29 c12 17 24 30 28 30 3 0 14 16 24 35 11
19 22 35 26 35 4 0 20 25 35 55 16 30 33 55 37 55 4 0 8 7 8 15 0 8 4 15 10
15 5 0 12 11 16 25 3 14 10 25 15 25 5 0 9 9 9 20 0 11 5 20 10 20 6 0 10 5
10 11 0 6 7 17 15 25 8 9 15 24 15 35 0 10 5 19 10 19 6 0 10 7 10 15 0 8 5
15 10 15 6 0 10 9 10 20 0 11 4 20 9 20 5 0 13 15 16 33 4 17 10 34 14 37 12
9 31 50 31 65 0 8 4 15 9 15 5 0 12 16 15 35 4 19 11 35 16 35 6 0 10 9 10 21
0 27 23 49 52 49 13 0 28 4 34 9 5 5 68 12 139 15 72 3 168 9 215 14 91 9 270
15 270 8z m-780 -56 c0 -5 -4 -10 -10 -10 -5 0 -12 -16 -16 -35 -3 -19 -10
-35 -15 -35 -5 0 -9 -7 -9 -15 0 -8 -4 -15 -10 -15 -5 0 -10 -11 -10 -25 0
-14 -4 -25 -9 -25 -5 0 -12 -16 -15 -35 -4 -19 -11 -35 -16 -35 -6 0 -10 -9
-10 -19 0 -11 -3 -21 -7 -23 -5 -1 -17 -21 -28 -42 -35 -68 -40 -76 -47 -76
-4 0 -10 -16 -14 -35 -3 -19 -10 -35 -15 -35 -5 0 -9 -7 -9 -15 0 -8 -4 -15
-8 -15 -5 0 -17 -16 -28 -35 -10 -19 -22 -35 -26 -35 -5 0 -8 -4 -8 -10 0 -12
-45 -80 -70 -105 -11 -12 -20 -24 -20 -29 0 -4 -12 -20 -27 -36 -16 -15 -36
-37 -45 -49 -16 -19 -28 -21 -146 -21 l-129 0 -6 188 c-4 103 -7 259 -8 347 0
99 -4 152 -9 140 -6 -14 -9 3 -9 53 l-1 72 313 0 c205 0 307 4 297 10 -10 7
14 10 78 10 55 0 92 -4 92 -10z m1135 -690 c-3 -5 -13 -10 -21 -10 -8 0 -23
-4 -34 -10 -11 -5 -29 -15 -40 -20 -11 -6 -40 -13 -65 -17 -24 -3 -42 -10 -39
-14 3 -5 -4 -9 -16 -9 -11 0 -28 -4 -38 -10 -29 -16 -111 -40 -138 -40 -14 0
-22 -4 -19 -10 4 -6 -5 -10 -20 -10 -14 0 -33 -4 -43 -9 -32 -16 -90 -32 -141
-38 -28 -3 -51 -10 -51 -14 0 -5 -15 -9 -33 -9 -19 0 -37 -3 -41 -7 -8 -9
-132 -32 -213 -40 -29 -2 -53 -9 -53 -14 0 -5 -20 -9 -45 -9 -25 0 -53 -4 -63
-10 -9 -5 -75 -14 -147 -19 -71 -5 -143 -13 -160 -16 -22 -5 -26 -4 -15 4 8 5
38 13 67 17 29 3 53 10 53 15 0 5 13 9 29 9 17 0 33 5 36 10 3 6 17 10 30 10
13 0 26 4 30 9 3 6 26 13 50 17 25 3 45 10 45 15 0 5 11 9 25 9 14 0 25 4 25
9 0 5 20 12 45 15 24 4 47 11 50 17 4 5 17 9 31 9 13 0 24 4 24 9 0 12 48 20
208 34 74 7 130 15 126 20 -4 4 18 7 49 7 32 0 57 4 57 9 0 5 24 12 53 15 116
12 228 31 221 39 -4 4 11 7 34 7 23 0 42 5 42 10 0 6 12 10 28 11 15 0 36 4
47 9 28 12 37 12 30 0z m-1195 -180 c-8 -5 -36 -13 -62 -16 -27 -4 -48 -10
-48 -15 0 -5 -13 -9 -28 -9 -15 0 -33 -5 -39 -11 -6 -6 -17 -9 -25 -7 -18 7
75 48 109 48 15 0 35 5 43 10 8 5 26 10 40 10 20 0 22 -2 10 -10z m-506 -23
c-2 -7 -17 -20 -32 -29 -15 -9 -44 -33 -66 -52 -56 -52 -66 -48 -66 24 l0 59
83 4 c45 1 83 4 84 5 1 1 0 -4 -3 -11z m189 6 c-13 -2 -23 -9 -23 -14 0 -5 -9
-9 -19 -9 -11 0 -21 -4 -23 -9 -1 -5 -16 -13 -33 -17 l-30 -7 35 31 c28 25 43
31 75 30 23 0 30 -3 18 -5z"/>
<path d="M12042 12337 l-22 -23 0 -685 0 -686 26 -24 c24 -23 32 -24 160 -24
133 0 134 0 161 28 l28 27 3 515 3 515 358 0 c356 0 358 0 392 -23 49 -33 64
-70 64 -157 0 -88 -20 -132 -75 -165 -33 -19 -54 -20 -355 -23 -397 -4 -365
11 -365 -173 0 -186 -21 -173 287 -178 l248 -3 125 -140 c69 -76 146 -159 172
-184 l47 -44 168 0 c92 0 178 3 191 6 12 4 29 19 37 35 32 61 26 71 -151 249
l-165 167 59 57 c106 101 155 227 155 401 -1 179 -48 307 -151 411 -61 60
-163 115 -250 133 -35 7 -239 11 -591 11 l-538 0 -21 -23z"/>
<path d="M13769 12341 l-24 -19 -3 -685 -2 -685 24 -29 24 -28 454 0 c443 0
455 0 533 23 251 73 429 258 501 522 28 102 26 311 -4 415 -73 251 -247 422
-496 485 -73 19 -112 20 -531 20 -431 0 -454 -1 -476 -19z m956 -390 c74 -36
126 -88 162 -166 24 -52 28 -72 28 -155 0 -83 -4 -103 -28 -156 -35 -76 -94
-135 -172 -171 l-60 -28 -267 -3 -268 -4 0 356 0 356 273 0 272 0 60 -29z"/>
<path d="M15412 12337 l-22 -23 0 -685 0 -686 26 -24 26 -24 615 0 615 0 25
29 c24 28 24 32 21 168 -3 133 -4 141 -27 159 -22 18 -45 19 -472 19 l-449 0
0 355 0 355 438 0 c416 0 439 1 469 20 40 24 46 52 41 205 -3 109 -5 118 -27
136 -22 18 -48 19 -640 19 l-618 0 -21 -23z"/>
<path d="M16842 12337 l-22 -23 0 -685 0 -686 26 -24 c24 -22 35 -24 146 -27
79 -3 130 0 149 9 59 24 59 20 59 574 l0 505 358 0 c336 0 359 -1 389 -20 49
-30 66 -63 70 -143 4 -61 1 -79 -19 -117 -43 -84 -47 -85 -413 -88 -397 -4
-365 11 -365 -173 0 -186 -21 -173 287 -179 l248 -5 159 -173 c87 -96 169
-178 183 -183 32 -12 335 -12 368 1 26 10 47 48 47 89 0 17 -44 67 -167 191
l-167 167 62 58 c139 134 191 356 134 580 -34 134 -124 251 -240 312 -115 61
-133 63 -730 63 l-541 0 -21 -23z"/>
<path d="M18569 12341 l-24 -19 -3 -664 c-2 -364 0 -678 3 -696 4 -23 16 -39
38 -53 31 -19 51 -19 634 -17 l601 3 26 24 c26 24 26 27 26 166 0 205 55 185
-498 185 l-452 0 0 355 0 354 449 3 449 3 26 24 c26 24 26 27 26 166 0 135 -1
143 -23 163 l-23 22 -616 0 c-591 0 -617 -1 -639 -19z"/>
<path d="M15812 11787 c-20 -21 -22 -34 -22 -148 0 -185 -42 -169 437 -169
l391 0 26 31 c24 29 26 37 26 139 0 102 -2 110 -26 139 l-26 31 -392 0 -393 0
-21 -23z"/>
<path d="M18966 11779 c-24 -29 -26 -37 -26 -139 0 -102 2 -110 26 -139 l26
-31 389 0 390 0 24 25 c24 23 25 30 25 145 0 115 -1 122 -25 145 l-24 25 -390
0 -389 0 -26 -31z"/>
<path d="M15610 10522 c-70 -35 -70 -32 -70 -549 l0 -462 22 -15 c16 -11 46
-16 103 -16 134 0 125 -23 125 328 l0 297 313 -312 c333 -332 337 -336 415
-318 37 8 80 52 92 96 16 54 13 898 -3 929 -12 24 -17 25 -116 28 -67 2 -108
-1 -117 -9 -11 -9 -14 -66 -14 -306 l0 -295 -302 297 c-172 170 -315 303 -334
311 -44 18 -72 18 -114 -4z"/>
<path d="M18240 10523 c-30 -15 -75 -85 -322 -493 -157 -261 -287 -485 -287
-497 -2 -40 34 -53 147 -53 94 0 105 2 125 23 12 12 105 163 206 335 147 249
187 310 196 300 7 -7 35 -52 64 -100 l51 -88 -114 0 c-128 0 -119 5 -179 -98
-38 -66 -45 -100 -25 -120 9 -9 75 -12 233 -12 l222 0 61 -105 c34 -57 73
-112 86 -120 36 -24 744 -16 830 9 176 52 262 142 300 316 14 63 16 125 14
377 -2 231 -6 305 -16 315 -8 8 -47 14 -107 16 -90 4 -95 3 -120 -22 l-25 -25
0 -296 c0 -317 -3 -337 -51 -382 -50 -46 -96 -53 -328 -53 -253 0 -263 -3
-271 -70 l-5 -45 -249 415 c-137 228 -263 430 -281 449 -41 42 -102 51 -155
24z"/>
<path d="M13383 10519 c-101 -19 -186 -78 -223 -153 -65 -134 -32 -315 72
-398 85 -67 113 -72 430 -78 253 -4 289 -7 304 -22 25 -25 22 -77 -5 -100 -22
-17 -49 -18 -395 -18 -279 0 -377 -3 -396 -13 -24 -12 -25 -17 -28 -119 -3
-104 -2 -108 22 -123 21 -14 71 -16 428 -13 393 3 404 4 460 26 68 28 126 81
159 148 21 42 24 63 24 154 0 95 -3 111 -28 162 -36 72 -84 113 -166 138 -56
18 -93 20 -330 20 -300 0 -311 2 -311 65 0 66 -8 65 390 65 436 0 402 -12 398
140 -3 100 -4 105 -28 117 -29 15 -705 17 -777 2z"/>
<path d="M14646 10514 c-96 -21 -180 -66 -247 -133 -97 -97 -139 -208 -139
-366 0 -156 43 -274 135 -373 69 -75 142 -117 244 -143 75 -19 104 -21 275
-17 160 4 200 8 247 25 87 32 114 49 184 114 113 106 174 269 161 431 -12 150
-61 255 -162 347 -109 100 -223 131 -472 130 -98 0 -183 -6 -226 -15z m462
-280 c85 -42 132 -124 132 -229 0 -104 -48 -187 -133 -230 -49 -24 -58 -25
-226 -25 -202 0 -230 8 -293 78 -93 103 -87 273 14 369 58 56 85 62 279 63
169 0 177 -1 227 -26z"/>
<path d="M16710 10518 l-25 -14 -3 -494 c-2 -495 -2 -495 19 -512 19 -16 50
-18 324 -18 270 0 310 2 381 20 99 26 172 69 238 142 93 102 136 220 136 373
0 245 -123 417 -350 491 -47 15 -102 18 -375 21 -250 3 -325 1 -345 -9z m644
-270 c62 -19 130 -91 150 -157 20 -68 20 -104 0 -170 -18 -62 -69 -122 -128
-150 -38 -19 -61 -21 -239 -21 l-197 0 0 255 0 255 186 0 c119 0 202 -4 228
-12z"/>
</g>
</svg>
